G75*
G70*
%OFA0B0*%
%FSLAX24Y24*%
%IPPOS*%
%LPD*%
%AMOC8*
5,1,8,0,0,1.08239X$1,22.5*
%
%ADD10C,0.0030*%
%ADD11C,0.0060*%
%ADD12C,0.0080*%
%ADD13C,0.0143*%
%ADD14C,0.0050*%
%ADD15C,0.0100*%
D10*
X000395Y001895D02*
X000685Y001895D01*
X000540Y001895D02*
X000492Y001943D01*
X000492Y002040D01*
X000540Y002088D01*
X000685Y002088D01*
X000637Y002238D02*
X000685Y002286D01*
X000637Y002238D02*
X000443Y002238D01*
X000492Y002190D02*
X000492Y002286D01*
X000492Y002386D02*
X000492Y002483D01*
X000443Y002434D02*
X000637Y002434D01*
X000685Y002483D01*
X000685Y002583D02*
X000685Y002728D01*
X000637Y002776D01*
X000540Y002776D01*
X000492Y002728D01*
X000492Y002583D01*
X000782Y002583D01*
X000685Y002877D02*
X000637Y002877D01*
X000637Y002926D01*
X000685Y002926D01*
X000685Y002877D01*
X000540Y002877D02*
X000492Y002877D01*
X000492Y002926D01*
X000540Y002926D01*
X000540Y002877D01*
X000685Y003024D02*
X000395Y003218D01*
X000395Y003513D02*
X000685Y003319D01*
X000637Y005087D02*
X000492Y005087D01*
X000637Y005087D02*
X000685Y005135D01*
X000637Y005184D01*
X000685Y005232D01*
X000637Y005281D01*
X000492Y005281D01*
X000492Y005382D02*
X000492Y005430D01*
X000685Y005430D01*
X000685Y005382D02*
X000685Y005478D01*
X000685Y005578D02*
X000395Y005578D01*
X000395Y005430D02*
X000346Y005430D01*
X000588Y005578D02*
X000492Y005723D01*
X000492Y005824D02*
X000492Y005872D01*
X000685Y005872D01*
X000685Y005824D02*
X000685Y005920D01*
X000685Y006020D02*
X000685Y006068D01*
X000637Y006068D01*
X000637Y006020D01*
X000685Y006020D01*
X000637Y006167D02*
X000685Y006216D01*
X000685Y006361D01*
X000733Y006361D02*
X000782Y006313D01*
X000782Y006264D01*
X000875Y006263D02*
X000875Y006167D01*
X000923Y006118D01*
X001117Y006118D01*
X001165Y006167D01*
X001165Y006263D01*
X001117Y006312D01*
X001068Y006263D02*
X000972Y006263D01*
X000972Y006167D01*
X001068Y006167D01*
X001068Y006263D01*
X001020Y006312D01*
X000923Y006312D01*
X000875Y006263D01*
X000972Y006413D02*
X000972Y006510D01*
X000923Y006461D02*
X001117Y006461D01*
X001165Y006510D01*
X001117Y006609D02*
X001020Y006609D01*
X000972Y006658D01*
X000972Y006755D01*
X001020Y006803D01*
X001068Y006803D01*
X001068Y006609D01*
X001117Y006609D02*
X001165Y006658D01*
X001165Y006755D01*
X001117Y006904D02*
X001165Y006952D01*
X001165Y007098D01*
X000972Y007098D01*
X000972Y007199D02*
X001117Y007199D01*
X001165Y007247D01*
X001117Y007295D01*
X001165Y007344D01*
X001117Y007392D01*
X000972Y007392D01*
X001020Y007493D02*
X000972Y007542D01*
X000972Y007639D01*
X001020Y007687D01*
X001068Y007687D01*
X001068Y007493D01*
X001020Y007493D02*
X001117Y007493D01*
X001165Y007542D01*
X001165Y007639D01*
X001165Y007788D02*
X000972Y007788D01*
X000972Y007933D01*
X001020Y007982D01*
X001165Y007982D01*
X001165Y008083D02*
X001117Y008083D01*
X001117Y008131D01*
X001165Y008131D01*
X001165Y008083D01*
X001117Y008230D02*
X001165Y008278D01*
X001165Y008375D01*
X001117Y008424D01*
X001020Y008424D01*
X000972Y008375D01*
X000972Y008278D01*
X001020Y008230D01*
X001117Y008230D01*
X001165Y008525D02*
X000972Y008525D01*
X001068Y008525D02*
X000972Y008621D01*
X000972Y008670D01*
X001020Y008770D02*
X001117Y008770D01*
X001165Y008819D01*
X001165Y008964D01*
X001213Y008964D02*
X000972Y008964D01*
X000972Y008819D01*
X001020Y008770D01*
X001213Y008964D02*
X001262Y008915D01*
X001262Y008867D01*
X000685Y008915D02*
X000588Y008770D01*
X000492Y008915D01*
X000492Y009016D02*
X000492Y009064D01*
X000685Y009064D01*
X000685Y009016D02*
X000685Y009112D01*
X000685Y009212D02*
X000395Y009406D01*
X000395Y009507D02*
X000395Y009652D01*
X000443Y009700D01*
X000540Y009700D01*
X000588Y009652D01*
X000588Y009507D01*
X000588Y009604D02*
X000685Y009700D01*
X000637Y009801D02*
X000588Y009850D01*
X000588Y009995D01*
X000540Y009995D02*
X000685Y009995D01*
X000685Y009850D01*
X000637Y009801D01*
X000492Y009850D02*
X000492Y009947D01*
X000540Y009995D01*
X000540Y010096D02*
X000492Y010145D01*
X000492Y010290D01*
X000492Y010391D02*
X000492Y010536D01*
X000540Y010584D01*
X000637Y010584D01*
X000685Y010536D01*
X000685Y010391D01*
X000782Y010391D02*
X000492Y010391D01*
X000637Y010290D02*
X000588Y010241D01*
X000588Y010145D01*
X000540Y010096D01*
X000685Y010096D02*
X000685Y010241D01*
X000637Y010290D01*
X000637Y010685D02*
X000540Y010685D01*
X000492Y010734D01*
X000492Y010879D01*
X000395Y010879D02*
X000685Y010879D01*
X000685Y010734D01*
X000637Y010685D01*
X000637Y010980D02*
X000588Y011028D01*
X000588Y011174D01*
X000540Y011174D02*
X000685Y011174D01*
X000685Y011028D01*
X000637Y010980D01*
X000492Y011028D02*
X000492Y011125D01*
X000540Y011174D01*
X000492Y011275D02*
X000492Y011420D01*
X000540Y011468D01*
X000685Y011468D01*
X000637Y011569D02*
X000685Y011618D01*
X000685Y011763D01*
X000637Y011864D02*
X000540Y011864D01*
X000492Y011912D01*
X000492Y012009D01*
X000540Y012058D01*
X000588Y012058D01*
X000588Y011864D01*
X000637Y011864D02*
X000685Y011912D01*
X000685Y012009D01*
X000685Y012159D02*
X000492Y012159D01*
X000588Y012159D02*
X000492Y012255D01*
X000492Y012304D01*
X000492Y011763D02*
X000492Y011618D01*
X000540Y011569D01*
X000637Y011569D01*
X000685Y011275D02*
X000492Y011275D01*
X001116Y011168D02*
X001213Y011265D01*
X001213Y010975D01*
X001116Y010975D02*
X001310Y010975D01*
X001411Y011023D02*
X001411Y011072D01*
X001459Y011120D01*
X001556Y011120D01*
X001605Y011072D01*
X001605Y011023D01*
X001556Y010975D01*
X001459Y010975D01*
X001411Y011023D01*
X001459Y011120D02*
X001411Y011168D01*
X001411Y011217D01*
X001459Y011265D01*
X001556Y011265D01*
X001605Y011217D01*
X001605Y011168D01*
X001556Y011120D01*
X001706Y011168D02*
X001706Y010878D01*
X001706Y010975D02*
X001851Y010975D01*
X001899Y011023D01*
X001899Y011120D01*
X001851Y011168D01*
X001706Y011168D01*
X002000Y011120D02*
X002097Y011120D01*
X002000Y010975D02*
X002000Y011265D01*
X002194Y011265D01*
X001645Y012300D02*
X001645Y012590D01*
X001500Y012445D01*
X001694Y012445D01*
X001399Y012348D02*
X001351Y012300D01*
X001254Y012300D01*
X001206Y012348D01*
X001206Y012542D01*
X001254Y012590D01*
X001351Y012590D01*
X001399Y012542D01*
X003070Y011612D02*
X003070Y011418D01*
X003118Y011370D01*
X003215Y011370D01*
X003263Y011418D01*
X003365Y011418D02*
X003413Y011370D01*
X003510Y011370D01*
X003558Y011418D01*
X003558Y011467D01*
X003510Y011515D01*
X003461Y011515D01*
X003510Y011515D02*
X003558Y011563D01*
X003558Y011612D01*
X003510Y011660D01*
X003413Y011660D01*
X003365Y011612D01*
X003263Y011612D02*
X003215Y011660D01*
X003118Y011660D01*
X003070Y011612D01*
X003795Y011563D02*
X003892Y011660D01*
X003892Y011370D01*
X003988Y011370D02*
X003795Y011370D01*
X004090Y011418D02*
X004090Y011467D01*
X004138Y011515D01*
X004235Y011515D01*
X004283Y011467D01*
X004283Y011418D01*
X004235Y011370D01*
X004138Y011370D01*
X004090Y011418D01*
X004138Y011515D02*
X004090Y011563D01*
X004090Y011612D01*
X004138Y011660D01*
X004235Y011660D01*
X004283Y011612D01*
X004283Y011563D01*
X004235Y011515D01*
X004384Y011563D02*
X004529Y011563D01*
X004578Y011515D01*
X004578Y011418D01*
X004529Y011370D01*
X004384Y011370D01*
X004384Y011273D02*
X004384Y011563D01*
X004679Y011515D02*
X004776Y011515D01*
X004872Y011660D02*
X004679Y011660D01*
X004679Y011370D01*
X005795Y012570D02*
X005988Y012570D01*
X005892Y012570D02*
X005892Y012860D01*
X005795Y012763D01*
X006090Y012812D02*
X006138Y012860D01*
X006235Y012860D01*
X006283Y012812D01*
X006283Y012763D01*
X006090Y012570D01*
X006283Y012570D01*
X006384Y012570D02*
X006384Y012860D01*
X006481Y012763D01*
X006578Y012860D01*
X006578Y012570D01*
X006679Y012570D02*
X006679Y012860D01*
X006727Y012763D02*
X006679Y012715D01*
X006727Y012763D02*
X006824Y012763D01*
X006872Y012715D01*
X006872Y012570D01*
X006974Y012570D02*
X007167Y012570D01*
X007167Y012763D02*
X006974Y012570D01*
X006974Y012763D02*
X007167Y012763D01*
X007300Y010392D02*
X007300Y010199D01*
X007590Y010199D01*
X007590Y010097D02*
X007445Y010097D01*
X007397Y010049D01*
X007397Y009904D01*
X007590Y009904D01*
X007542Y009803D02*
X007590Y009754D01*
X007590Y009658D01*
X007542Y009609D01*
X007348Y009803D01*
X007542Y009803D01*
X007542Y009609D02*
X007348Y009609D01*
X007300Y009658D01*
X007300Y009754D01*
X007348Y009803D01*
X007348Y009508D02*
X007542Y009315D01*
X007590Y009363D01*
X007590Y009460D01*
X007542Y009508D01*
X007348Y009508D01*
X007300Y009460D01*
X007300Y009363D01*
X007348Y009315D01*
X007542Y009315D01*
X007590Y009213D02*
X007590Y009020D01*
X007590Y009117D02*
X007300Y009117D01*
X007397Y009020D01*
X007445Y010199D02*
X007445Y010295D01*
X006115Y010083D02*
X006115Y009890D01*
X005922Y010083D01*
X005873Y010083D01*
X005825Y010035D01*
X005825Y009938D01*
X005873Y009890D01*
X005873Y009788D02*
X005825Y009740D01*
X005825Y009643D01*
X005873Y009595D01*
X006067Y009595D01*
X006115Y009643D01*
X006115Y009740D01*
X006067Y009788D01*
X006395Y007590D02*
X006518Y007590D01*
X006457Y007590D02*
X006457Y007220D01*
X006518Y007220D02*
X006395Y007220D01*
X006641Y007220D02*
X006641Y007590D01*
X006887Y007220D01*
X006887Y007590D01*
X007009Y007590D02*
X007256Y007590D01*
X007132Y007590D02*
X007132Y007220D01*
X007057Y006090D02*
X007304Y005720D01*
X007057Y005720D02*
X007304Y006090D01*
X006935Y006029D02*
X006935Y005905D01*
X006873Y005843D01*
X006688Y005843D01*
X006688Y005720D02*
X006688Y006090D01*
X006873Y006090D01*
X006935Y006029D01*
X006567Y006029D02*
X006505Y006090D01*
X006382Y006090D01*
X006320Y006029D01*
X006320Y005782D01*
X006382Y005720D01*
X006505Y005720D01*
X006567Y005782D01*
X006567Y005905D01*
X006443Y005905D01*
X005194Y006073D02*
X005145Y006025D01*
X005049Y006025D01*
X005000Y006073D01*
X004899Y006073D02*
X004851Y006025D01*
X004754Y006025D01*
X004706Y006073D01*
X004802Y006170D02*
X004851Y006170D01*
X004899Y006122D01*
X004899Y006073D01*
X004851Y006170D02*
X004899Y006218D01*
X004899Y006267D01*
X004851Y006315D01*
X004754Y006315D01*
X004706Y006267D01*
X004444Y006025D02*
X004250Y006025D01*
X004347Y006025D02*
X004347Y006315D01*
X004250Y006218D01*
X004149Y006170D02*
X004101Y006122D01*
X003956Y006122D01*
X004052Y006122D02*
X004149Y006025D01*
X004149Y006170D02*
X004149Y006267D01*
X004101Y006315D01*
X003956Y006315D01*
X003956Y006025D01*
X003044Y006073D02*
X002995Y006025D01*
X002899Y006025D01*
X002850Y006073D01*
X002749Y006073D02*
X002701Y006025D01*
X002604Y006025D01*
X002556Y006073D01*
X002652Y006170D02*
X002701Y006170D01*
X002749Y006122D01*
X002749Y006073D01*
X002701Y006170D02*
X002749Y006218D01*
X002749Y006267D01*
X002701Y006315D01*
X002604Y006315D01*
X002556Y006267D01*
X002850Y006267D02*
X002899Y006315D01*
X002995Y006315D01*
X003044Y006267D01*
X003044Y006218D01*
X002995Y006170D01*
X003044Y006122D01*
X003044Y006073D01*
X002995Y006170D02*
X002947Y006170D01*
X002169Y006218D02*
X002169Y006267D01*
X002120Y006315D01*
X002024Y006315D01*
X001975Y006267D01*
X001874Y006267D02*
X001874Y006170D01*
X001826Y006122D01*
X001681Y006122D01*
X001777Y006122D02*
X001874Y006025D01*
X001975Y006025D02*
X002169Y006218D01*
X002169Y006025D02*
X001975Y006025D01*
X001874Y006267D02*
X001826Y006315D01*
X001681Y006315D01*
X001681Y006025D01*
X001165Y006019D02*
X001165Y005922D01*
X001165Y005970D02*
X000875Y005970D01*
X000875Y005922D01*
X000875Y005774D02*
X000826Y005774D01*
X000685Y005723D02*
X000588Y005578D01*
X000395Y005872D02*
X000346Y005872D01*
X000492Y006167D02*
X000637Y006167D01*
X000733Y006361D02*
X000492Y006361D01*
X000540Y006462D02*
X000492Y006510D01*
X000492Y006607D01*
X000540Y006656D01*
X000637Y006656D01*
X000685Y006607D01*
X000685Y006510D01*
X000637Y006462D01*
X000540Y006462D01*
X000492Y006757D02*
X000492Y006902D01*
X000540Y006950D01*
X000637Y006950D01*
X000685Y006902D01*
X000685Y006757D01*
X000395Y006757D01*
X000492Y007051D02*
X000492Y007100D01*
X000685Y007100D01*
X000685Y007148D02*
X000685Y007051D01*
X000685Y007248D02*
X000685Y007296D01*
X000637Y007296D01*
X000637Y007248D01*
X000685Y007248D01*
X000685Y007395D02*
X000685Y007540D01*
X000637Y007589D01*
X000540Y007589D01*
X000492Y007540D01*
X000492Y007395D01*
X000395Y007395D02*
X000685Y007395D01*
X000637Y007690D02*
X000540Y007690D01*
X000492Y007738D01*
X000492Y007835D01*
X000540Y007883D01*
X000588Y007883D01*
X000588Y007690D01*
X000637Y007690D02*
X000685Y007738D01*
X000685Y007835D01*
X000685Y007984D02*
X000395Y008178D01*
X000492Y008279D02*
X000637Y008279D01*
X000685Y008327D01*
X000637Y008376D01*
X000685Y008424D01*
X000637Y008473D01*
X000492Y008473D01*
X000492Y008574D02*
X000492Y008622D01*
X000685Y008622D01*
X000685Y008574D02*
X000685Y008671D01*
X000685Y008770D02*
X000395Y008770D01*
X000395Y008622D02*
X000346Y008622D01*
X000346Y009064D02*
X000395Y009064D01*
X000395Y009507D02*
X000685Y009507D01*
X000395Y007100D02*
X000346Y007100D01*
X000972Y006904D02*
X001117Y006904D01*
X001165Y005822D02*
X001165Y005725D01*
X001165Y005774D02*
X000972Y005774D01*
X000972Y005725D01*
X001020Y005624D02*
X001165Y005624D01*
X001165Y005431D02*
X000875Y005431D01*
X000972Y005479D02*
X000972Y005576D01*
X001020Y005624D01*
X000972Y005479D02*
X001020Y005431D01*
X001020Y005330D02*
X001117Y005330D01*
X001165Y005281D01*
X001165Y005136D01*
X001262Y005136D02*
X000972Y005136D01*
X000972Y005281D01*
X001020Y005330D01*
X005000Y006267D02*
X005049Y006315D01*
X005145Y006315D01*
X005194Y006267D01*
X005194Y006218D01*
X005145Y006170D01*
X005194Y006122D01*
X005194Y006073D01*
X005145Y006170D02*
X005097Y006170D01*
X006595Y003294D02*
X006595Y003100D01*
X006885Y003100D01*
X006885Y002999D02*
X006692Y002999D01*
X006740Y003100D02*
X006740Y003197D01*
X006885Y002999D02*
X006885Y002854D01*
X006837Y002806D01*
X006692Y002806D01*
X006595Y002608D02*
X006885Y002608D01*
X006885Y002511D02*
X006885Y002705D01*
X006692Y002511D02*
X006595Y002608D01*
X006485Y002654D02*
X006485Y002751D01*
X006437Y002799D01*
X006485Y002900D02*
X006485Y003094D01*
X006485Y002997D02*
X006195Y002997D01*
X006292Y002900D01*
X006243Y002799D02*
X006195Y002751D01*
X006195Y002654D01*
X006243Y002606D01*
X006437Y002606D01*
X006485Y002654D01*
X006210Y001941D02*
X006155Y001941D01*
X006100Y001886D01*
X006100Y001721D01*
X006155Y001610D02*
X006210Y001610D01*
X006265Y001555D01*
X006265Y001444D01*
X006210Y001389D01*
X006210Y001278D02*
X005935Y001278D01*
X005990Y001389D02*
X006045Y001389D01*
X006100Y001444D01*
X006100Y001555D01*
X006155Y001610D01*
X006265Y001721D02*
X006265Y001886D01*
X006210Y001941D01*
X006100Y001886D02*
X006045Y001941D01*
X005990Y001941D01*
X005935Y001886D01*
X005935Y001721D01*
X006265Y001721D01*
X005990Y001610D02*
X005935Y001555D01*
X005935Y001444D01*
X005990Y001389D01*
X006210Y001278D02*
X006265Y001223D01*
X006265Y001113D01*
X006210Y001058D01*
X005935Y001058D01*
X006100Y000947D02*
X006045Y000892D01*
X006045Y000782D01*
X006100Y000726D01*
X006210Y000726D01*
X006265Y000782D01*
X006265Y000892D01*
X006210Y000947D01*
X006100Y000947D01*
X006100Y000615D02*
X005990Y000615D01*
X005935Y000560D01*
X005935Y000395D01*
X006265Y000395D01*
X006155Y000395D02*
X006155Y000560D01*
X006100Y000615D01*
D11*
X006480Y000330D02*
X006480Y001130D01*
X006580Y001230D01*
X006480Y001330D01*
X006480Y002130D01*
X006580Y002230D01*
X007380Y002230D01*
X007480Y002130D01*
X007480Y001330D01*
X007380Y001230D01*
X007480Y001130D01*
X007480Y000330D01*
X007380Y000230D01*
X006580Y000230D01*
X006480Y000330D01*
X007880Y000480D02*
X007880Y012980D01*
X007882Y013010D01*
X007887Y013040D01*
X007896Y013069D01*
X007909Y013096D01*
X007924Y013122D01*
X007943Y013146D01*
X007964Y013167D01*
X007988Y013186D01*
X008014Y013201D01*
X008041Y013214D01*
X008070Y013223D01*
X008100Y013228D01*
X008130Y013230D01*
X010030Y013230D01*
X010060Y013228D01*
X010090Y013223D01*
X010119Y013214D01*
X010146Y013201D01*
X010172Y013186D01*
X010196Y013167D01*
X010217Y013146D01*
X010236Y013122D01*
X010251Y013096D01*
X010264Y013069D01*
X010273Y013040D01*
X010278Y013010D01*
X010280Y012980D01*
X010280Y000480D01*
X010278Y000450D01*
X010273Y000420D01*
X010264Y000391D01*
X010251Y000364D01*
X010236Y000338D01*
X010217Y000314D01*
X010196Y000293D01*
X010172Y000274D01*
X010146Y000259D01*
X010119Y000246D01*
X010090Y000237D01*
X010060Y000232D01*
X010030Y000230D01*
X008130Y000230D01*
X008100Y000232D01*
X008070Y000237D01*
X008041Y000246D01*
X008014Y000259D01*
X007988Y000274D01*
X007964Y000293D01*
X007943Y000314D01*
X007924Y000338D01*
X007909Y000364D01*
X007896Y000391D01*
X007887Y000420D01*
X007882Y000450D01*
X007880Y000480D01*
X008180Y007230D02*
X009980Y007230D01*
X010014Y007232D01*
X010047Y007238D01*
X010079Y007247D01*
X010110Y007260D01*
X010140Y007276D01*
X010167Y007295D01*
X010192Y007318D01*
X010215Y007343D01*
X010234Y007370D01*
X010250Y007400D01*
X010263Y007431D01*
X010272Y007463D01*
X010278Y007496D01*
X010280Y007530D01*
X008180Y007230D02*
X008146Y007232D01*
X008113Y007238D01*
X008081Y007247D01*
X008050Y007260D01*
X008020Y007276D01*
X007993Y007295D01*
X007968Y007318D01*
X007945Y007343D01*
X007926Y007370D01*
X007910Y007400D01*
X007897Y007431D01*
X007888Y007463D01*
X007882Y007496D01*
X007880Y007530D01*
D12*
X007095Y007074D02*
X006465Y007074D01*
X006465Y007073D02*
X006449Y007068D01*
X006433Y007060D01*
X006419Y007050D01*
X006407Y007038D01*
X006397Y007023D01*
X006390Y007007D01*
X006386Y006990D01*
X006385Y006973D01*
X006387Y006955D01*
X006387Y006405D02*
X006385Y006387D01*
X006386Y006370D01*
X006390Y006353D01*
X006397Y006337D01*
X006407Y006322D01*
X006419Y006310D01*
X006433Y006300D01*
X006449Y006292D01*
X006465Y006287D01*
X006465Y006286D02*
X007095Y006286D01*
X007095Y006287D02*
X007111Y006292D01*
X007127Y006300D01*
X007141Y006310D01*
X007153Y006322D01*
X007163Y006337D01*
X007170Y006353D01*
X007174Y006370D01*
X007175Y006387D01*
X007173Y006405D01*
X007173Y006955D02*
X007175Y006973D01*
X007174Y006990D01*
X007170Y007007D01*
X007163Y007023D01*
X007153Y007038D01*
X007141Y007050D01*
X007127Y007060D01*
X007111Y007068D01*
X007095Y007073D01*
X007095Y005574D02*
X006465Y005574D01*
X006465Y005573D02*
X006449Y005568D01*
X006433Y005560D01*
X006419Y005550D01*
X006407Y005538D01*
X006397Y005523D01*
X006390Y005507D01*
X006386Y005490D01*
X006385Y005473D01*
X006387Y005455D01*
X006387Y004905D02*
X006385Y004887D01*
X006386Y004870D01*
X006390Y004853D01*
X006397Y004837D01*
X006407Y004822D01*
X006419Y004810D01*
X006433Y004800D01*
X006449Y004792D01*
X006465Y004787D01*
X006465Y004786D02*
X007095Y004786D01*
X007095Y004787D02*
X007111Y004792D01*
X007127Y004800D01*
X007141Y004810D01*
X007153Y004822D01*
X007163Y004837D01*
X007170Y004853D01*
X007174Y004870D01*
X007175Y004887D01*
X007173Y004905D01*
X007173Y005455D02*
X007175Y005473D01*
X007174Y005490D01*
X007170Y005507D01*
X007163Y005523D01*
X007153Y005538D01*
X007141Y005550D01*
X007127Y005560D01*
X007111Y005568D01*
X007095Y005573D01*
X006793Y010955D02*
X005967Y010955D01*
X005238Y011487D02*
X005238Y011723D01*
X005967Y012255D02*
X006793Y012255D01*
X007522Y011723D02*
X007522Y011487D01*
D13*
X007187Y011684D03*
D14*
X005115Y003766D02*
X002045Y003766D01*
X002320Y003766D02*
X002753Y003766D01*
X002045Y002782D02*
X002045Y001719D01*
X002045Y000144D02*
X005115Y000144D01*
X005115Y001719D02*
X005115Y002782D01*
X004840Y003766D02*
X004407Y003766D01*
X008180Y000730D02*
X008182Y000770D01*
X008188Y000809D01*
X008198Y000848D01*
X008211Y000885D01*
X008229Y000921D01*
X008250Y000955D01*
X008274Y000987D01*
X008301Y001016D01*
X008331Y001043D01*
X008363Y001066D01*
X008398Y001086D01*
X008434Y001102D01*
X008472Y001115D01*
X008511Y001124D01*
X008550Y001129D01*
X008590Y001130D01*
X008630Y001127D01*
X008669Y001120D01*
X008707Y001109D01*
X008745Y001095D01*
X008780Y001076D01*
X008813Y001055D01*
X008845Y001030D01*
X008873Y001002D01*
X008899Y000972D01*
X008921Y000939D01*
X008940Y000904D01*
X008956Y000867D01*
X008968Y000829D01*
X008976Y000790D01*
X008980Y000750D01*
X008980Y000710D01*
X008976Y000670D01*
X008968Y000631D01*
X008956Y000593D01*
X008940Y000556D01*
X008921Y000521D01*
X008899Y000488D01*
X008873Y000458D01*
X008845Y000430D01*
X008813Y000405D01*
X008780Y000384D01*
X008745Y000365D01*
X008707Y000351D01*
X008669Y000340D01*
X008630Y000333D01*
X008590Y000330D01*
X008550Y000331D01*
X008511Y000336D01*
X008472Y000345D01*
X008434Y000358D01*
X008398Y000374D01*
X008363Y000394D01*
X008331Y000417D01*
X008301Y000444D01*
X008274Y000473D01*
X008250Y000505D01*
X008229Y000539D01*
X008211Y000575D01*
X008198Y000612D01*
X008188Y000651D01*
X008182Y000690D01*
X008180Y000730D01*
D15*
X004464Y008021D02*
X002496Y008021D01*
X002496Y009989D01*
X004464Y009989D01*
X004464Y008021D01*
X002692Y009596D02*
X002694Y009623D01*
X002700Y009650D01*
X002709Y009676D01*
X002722Y009700D01*
X002738Y009723D01*
X002757Y009742D01*
X002779Y009759D01*
X002803Y009773D01*
X002828Y009783D01*
X002855Y009790D01*
X002882Y009793D01*
X002910Y009792D01*
X002937Y009787D01*
X002963Y009779D01*
X002987Y009767D01*
X003010Y009751D01*
X003031Y009733D01*
X003048Y009712D01*
X003063Y009688D01*
X003074Y009663D01*
X003082Y009637D01*
X003086Y009610D01*
X003086Y009582D01*
X003082Y009555D01*
X003074Y009529D01*
X003063Y009504D01*
X003048Y009480D01*
X003031Y009459D01*
X003010Y009441D01*
X002988Y009425D01*
X002963Y009413D01*
X002937Y009405D01*
X002910Y009400D01*
X002882Y009399D01*
X002855Y009402D01*
X002828Y009409D01*
X002803Y009419D01*
X002779Y009433D01*
X002757Y009450D01*
X002738Y009469D01*
X002722Y009492D01*
X002709Y009516D01*
X002700Y009542D01*
X002694Y009569D01*
X002692Y009596D01*
M02*
