%
M48
M72
T01C0.0236
T02C0.0360
T03C0.0394
T04C0.0400
%
T01
X2480Y6580
X3030Y6680
X4230Y7980
X4080Y8505
X3705Y8905
X3330Y9305
X2955Y9705
X3130Y12230
X4980Y10630
X6805Y7955
X7555Y7805
X6155Y6680
X5680Y6380
X4955Y7380
X7555Y5705
X7505Y10055
X830Y10605
T02
X6980Y1730
X6980Y730
X8580Y730
X8580Y1730
X8580Y2730
X8580Y3730
X8580Y4730
X8580Y5730
X8580Y6730
X8580Y7730
X8580Y8730
X8580Y9730
X8580Y10730
X8580Y11730
X8580Y12730
X9580Y12730
X9580Y11730
X9580Y10730
X9580Y9730
X9580Y8730
X9580Y7730
X9580Y6730
X9580Y5730
X9580Y4730
X9580Y3730
X9580Y2730
X9580Y1730
X9580Y730
T03
X2714Y2349
X4446Y2349
T04
X4930Y4930
X3930Y4930
X2930Y4930
X1930Y4930
M30
