G75*
G70*
%OFA0B0*%
%FSLAX24Y24*%
%IPPOS*%
%LPD*%
%AMOC8*
5,1,8,0,0,1.08239X$1,22.5*
%
%ADD10C,0.0030*%
%ADD11C,0.0560*%
%ADD12OC8,0.0560*%
%ADD13C,0.0560*%
%ADD14R,0.0740X0.0740*%
%ADD15C,0.0740*%
%ADD16C,0.0500*%
%ADD17C,0.0160*%
%ADD18C,0.0140*%
%ADD19C,0.0240*%
%ADD20C,0.0220*%
%ADD21C,0.0396*%
D10*
X002162Y003245D02*
X002409Y003492D01*
X002409Y003245D02*
X002162Y003492D01*
X002102Y003845D02*
X002040Y003845D01*
X002040Y003907D01*
X002102Y003907D01*
X002102Y003845D01*
X002223Y003845D02*
X002470Y003845D01*
X002347Y003845D02*
X002347Y004215D01*
X002470Y004092D01*
X002591Y004215D02*
X002591Y003968D01*
X002715Y003845D01*
X002838Y003968D01*
X002838Y004215D01*
X003328Y003845D02*
X003575Y003845D01*
X003696Y003845D02*
X003943Y003845D01*
X003820Y003845D02*
X003820Y004215D01*
X003943Y004092D01*
X004065Y004092D02*
X004127Y004092D01*
X004250Y003968D01*
X004372Y003968D02*
X004618Y003968D01*
X004618Y003907D02*
X004618Y004030D01*
X004557Y004092D01*
X004433Y004092D01*
X004372Y004030D01*
X004372Y003968D01*
X004433Y003845D02*
X004557Y003845D01*
X004618Y003907D01*
X004740Y003845D02*
X004925Y003845D01*
X004987Y003907D01*
X004987Y004030D01*
X004925Y004092D01*
X004740Y004092D01*
X005108Y004030D02*
X005108Y003845D01*
X005108Y004030D02*
X005170Y004092D01*
X005355Y004092D01*
X005355Y003845D01*
X005477Y003845D02*
X005662Y003845D01*
X005723Y003907D01*
X005662Y003968D01*
X005477Y003968D01*
X005477Y004030D02*
X005477Y003845D01*
X005477Y004030D02*
X005538Y004092D01*
X005662Y004092D01*
X005845Y004092D02*
X006030Y004092D01*
X006092Y004030D01*
X006092Y003907D01*
X006030Y003845D01*
X005845Y003845D01*
X005845Y004215D01*
X006213Y004030D02*
X006213Y003907D01*
X006275Y003845D01*
X006460Y003845D01*
X006460Y003722D02*
X006460Y004092D01*
X006275Y004092D01*
X006213Y004030D01*
X006581Y004092D02*
X006767Y004092D01*
X006828Y004030D01*
X006767Y003968D01*
X006643Y003968D01*
X006581Y003907D01*
X006643Y003845D01*
X006828Y003845D01*
X006950Y003845D02*
X007135Y003845D01*
X007197Y003907D01*
X007135Y003968D01*
X006950Y003968D01*
X006950Y004030D02*
X006950Y003845D01*
X006950Y004030D02*
X007012Y004092D01*
X007135Y004092D01*
X007318Y004154D02*
X007318Y004030D01*
X007380Y003968D01*
X007565Y003968D01*
X007565Y003845D02*
X007565Y004215D01*
X007380Y004215D01*
X007318Y004154D01*
X007442Y003968D02*
X007318Y003845D01*
X007565Y003615D02*
X007565Y003245D01*
X007380Y003245D01*
X007318Y003307D01*
X007318Y003430D01*
X007380Y003492D01*
X007565Y003492D01*
X007197Y003492D02*
X007197Y003307D01*
X007135Y003245D01*
X006950Y003245D01*
X006950Y003183D02*
X007012Y003122D01*
X007073Y003122D01*
X006950Y003183D02*
X006950Y003492D01*
X006460Y003307D02*
X006398Y003245D01*
X006337Y003245D01*
X006275Y003307D01*
X006275Y003615D01*
X006337Y003615D02*
X006213Y003615D01*
X006092Y003554D02*
X006092Y003307D01*
X006030Y003245D01*
X005907Y003245D01*
X005845Y003307D01*
X005723Y003245D02*
X005723Y003615D01*
X005477Y003245D01*
X005477Y003615D01*
X005845Y003554D02*
X005907Y003615D01*
X006030Y003615D01*
X006092Y003554D01*
X004987Y003554D02*
X004987Y003492D01*
X004740Y003245D01*
X004740Y003368D02*
X004863Y003245D01*
X004925Y003245D01*
X004987Y003307D01*
X004987Y003368D01*
X004863Y003492D01*
X004863Y003554D01*
X004925Y003615D01*
X004987Y003554D01*
X004250Y003430D02*
X004250Y003307D01*
X004188Y003245D01*
X004003Y003245D01*
X004003Y003615D01*
X004003Y003492D02*
X004188Y003492D01*
X004250Y003430D01*
X004250Y003845D02*
X004250Y004092D01*
X003820Y003492D02*
X003697Y003492D01*
X003635Y003430D01*
X003635Y003307D01*
X003697Y003245D01*
X003820Y003245D01*
X003882Y003307D01*
X003882Y003430D01*
X003820Y003492D01*
X003514Y003430D02*
X003514Y003307D01*
X003452Y003245D01*
X003328Y003245D01*
X003267Y003368D02*
X003514Y003368D01*
X003514Y003430D02*
X003452Y003492D01*
X003328Y003492D01*
X003267Y003430D01*
X003267Y003368D01*
X003145Y003307D02*
X003084Y003245D01*
X002898Y003245D01*
X002898Y003183D02*
X002898Y003492D01*
X003084Y003492D01*
X003145Y003430D01*
X003145Y003307D01*
X003022Y003122D02*
X002960Y003122D01*
X002898Y003183D01*
X002777Y003307D02*
X002715Y003245D01*
X002592Y003245D01*
X002530Y003307D01*
X002530Y003430D01*
X002592Y003492D01*
X002715Y003492D01*
X002777Y003430D01*
X002777Y003307D01*
X003451Y003845D02*
X003451Y004215D01*
X003575Y004092D01*
X001918Y004154D02*
X001918Y003907D01*
X001671Y004154D01*
X001671Y003907D01*
X001732Y003845D01*
X001856Y003845D01*
X001918Y003907D01*
X001918Y004154D02*
X001856Y004215D01*
X001732Y004215D01*
X001671Y004154D01*
D11*
X008580Y000730D03*
D12*
X008580Y001730D03*
X008580Y002730D03*
X008580Y003730D03*
X008580Y004730D03*
X008580Y005730D03*
X008580Y006730D03*
X008580Y007730D03*
X008580Y008730D03*
X008580Y009730D03*
X008580Y010730D03*
X008580Y011730D03*
X008580Y012730D03*
X009580Y012730D03*
X009580Y011730D03*
X009580Y010730D03*
X009580Y009730D03*
X009580Y008730D03*
X009580Y007730D03*
X009580Y006730D03*
X009580Y005730D03*
X009580Y004730D03*
X009580Y003730D03*
X009580Y002730D03*
X009580Y001730D03*
X009580Y000730D03*
D13*
X007085Y000730D02*
X006525Y000730D01*
X006525Y001730D02*
X007085Y001730D01*
D14*
X004930Y004930D03*
D15*
X003930Y004930D03*
X002930Y004930D03*
X001930Y004930D03*
D16*
X002343Y006668D03*
X002955Y006668D03*
X004255Y007968D03*
X004868Y007380D03*
X006105Y006730D03*
X006105Y006105D03*
X007555Y005705D03*
X007555Y007805D03*
X006805Y007955D03*
X007530Y008730D03*
X004980Y010630D03*
X003130Y012230D03*
X000830Y010605D03*
D17*
X000460Y013020D02*
X000460Y000460D01*
X006117Y000460D01*
X006045Y000635D01*
X006045Y000825D01*
X006118Y001002D01*
X006253Y001137D01*
X006430Y001210D01*
X007180Y001210D01*
X007357Y001137D01*
X007444Y001050D01*
X007447Y001050D01*
X007809Y001411D01*
X007899Y001501D01*
X008016Y001550D01*
X008100Y001550D01*
X008100Y001929D01*
X008381Y002210D01*
X008779Y002210D01*
X009060Y001929D01*
X009060Y001550D01*
X009100Y001550D01*
X009100Y001929D01*
X009381Y002210D01*
X009779Y002210D01*
X010042Y001947D01*
X010042Y003513D01*
X009779Y003250D01*
X009381Y003250D01*
X009100Y003531D01*
X009100Y003929D01*
X009381Y004210D01*
X009779Y004210D01*
X010042Y003947D01*
X010042Y004513D01*
X009779Y004250D01*
X009381Y004250D01*
X009100Y004531D01*
X009100Y004929D01*
X009381Y005210D01*
X009779Y005210D01*
X010042Y004947D01*
X010042Y005513D01*
X009779Y005250D01*
X009381Y005250D01*
X009100Y005531D01*
X009100Y005929D01*
X009381Y006210D01*
X009779Y006210D01*
X010042Y005947D01*
X010042Y007513D01*
X009868Y007339D01*
X009851Y007299D01*
X009761Y007209D01*
X009743Y007190D01*
X009771Y007190D01*
X010040Y006921D01*
X010040Y006740D01*
X009590Y006740D01*
X009590Y006720D01*
X010040Y006720D01*
X010040Y006539D01*
X009771Y006270D01*
X009590Y006270D01*
X009590Y006720D01*
X009570Y006720D01*
X009570Y006270D01*
X009389Y006270D01*
X009331Y006328D01*
X009261Y006259D01*
X009051Y006049D01*
X008996Y005993D01*
X009060Y005929D01*
X009060Y005531D01*
X008779Y005250D01*
X008381Y005250D01*
X008100Y005531D01*
X008100Y005797D01*
X008005Y005702D01*
X008005Y005615D01*
X007936Y005450D01*
X007810Y005324D01*
X007645Y005255D01*
X007465Y005255D01*
X007300Y005324D01*
X007174Y005450D01*
X007105Y005615D01*
X007105Y005795D01*
X007118Y005825D01*
X006694Y005403D01*
X006649Y005359D01*
X006648Y005359D01*
X006648Y005358D01*
X006590Y005334D01*
X006531Y005310D01*
X006531Y005310D01*
X006530Y005310D01*
X006467Y005310D01*
X005804Y005310D01*
X005686Y005359D01*
X005235Y005810D01*
X002504Y005810D01*
X002386Y005859D01*
X002161Y006084D01*
X002071Y006174D01*
X002023Y006291D01*
X002023Y006351D01*
X001961Y006413D01*
X001893Y006578D01*
X001893Y006757D01*
X001961Y006922D01*
X002088Y007049D01*
X002253Y007117D01*
X002432Y007117D01*
X002597Y007049D01*
X002649Y006998D01*
X002700Y007049D01*
X002865Y007117D01*
X003045Y007117D01*
X003210Y007049D01*
X003271Y006987D01*
X004639Y006987D01*
X004613Y006999D01*
X004486Y007125D01*
X004418Y007290D01*
X004418Y007470D01*
X004486Y007635D01*
X004613Y007761D01*
X004778Y007830D01*
X004957Y007830D01*
X005122Y007761D01*
X005184Y007700D01*
X005519Y007700D01*
X005636Y007651D01*
X005726Y007561D01*
X006108Y007180D01*
X006195Y007180D01*
X006360Y007111D01*
X006486Y006985D01*
X006555Y006820D01*
X006555Y006640D01*
X006486Y006475D01*
X006429Y006418D01*
X006486Y006360D01*
X006555Y006195D01*
X006555Y006168D01*
X008100Y007704D01*
X008100Y007897D01*
X008005Y007802D01*
X008005Y007715D01*
X007936Y007550D01*
X007810Y007424D01*
X007645Y007355D01*
X007465Y007355D01*
X007300Y007424D01*
X007174Y007550D01*
X007105Y007715D01*
X007105Y007895D01*
X007174Y008060D01*
X007300Y008186D01*
X007465Y008255D01*
X007552Y008255D01*
X007577Y008280D01*
X007440Y008280D01*
X007275Y008349D01*
X007149Y008475D01*
X007080Y008640D01*
X007080Y008820D01*
X007149Y008985D01*
X007275Y009111D01*
X007440Y009180D01*
X007620Y009180D01*
X007785Y009111D01*
X007846Y009050D01*
X008221Y009050D01*
X008381Y009210D01*
X008779Y009210D01*
X009060Y008929D01*
X009060Y008550D01*
X009100Y008550D01*
X009100Y008929D01*
X009381Y009210D01*
X009779Y009210D01*
X010042Y008947D01*
X010042Y010513D01*
X009779Y010250D01*
X009381Y010250D01*
X009100Y010531D01*
X009100Y010920D01*
X009060Y010920D01*
X009060Y010531D01*
X008779Y010250D01*
X008381Y010250D01*
X008211Y010420D01*
X007458Y010420D01*
X007088Y010050D01*
X008221Y010050D01*
X008381Y010210D01*
X008779Y010210D01*
X009060Y009929D01*
X009060Y009531D01*
X008779Y009250D01*
X008381Y009250D01*
X008221Y009410D01*
X007138Y009410D01*
X005961Y008234D01*
X005844Y008185D01*
X004323Y008185D01*
X004306Y008167D01*
X004159Y008107D01*
X004001Y008107D01*
X003854Y008167D01*
X003742Y008279D01*
X003682Y008426D01*
X003682Y008507D01*
X003626Y008507D01*
X003479Y008567D01*
X003367Y008679D01*
X003307Y008826D01*
X003307Y008907D01*
X003251Y008907D01*
X003104Y008967D01*
X002992Y009079D01*
X002932Y009226D01*
X002932Y009307D01*
X002876Y009307D01*
X002729Y009367D01*
X002617Y009479D01*
X002557Y009626D01*
X002557Y009784D01*
X002617Y009931D01*
X002729Y010043D01*
X002876Y010103D01*
X003034Y010103D01*
X003181Y010043D01*
X003208Y010015D01*
X005027Y010015D01*
X007004Y011993D01*
X007118Y012040D01*
X008211Y012040D01*
X008381Y012210D01*
X008779Y012210D01*
X009060Y011929D01*
X009060Y011648D01*
X009100Y011688D01*
X009100Y011929D01*
X009381Y012210D01*
X009779Y012210D01*
X010042Y011947D01*
X010042Y012513D01*
X009779Y012250D01*
X009381Y012250D01*
X009100Y012531D01*
X009100Y012929D01*
X009191Y013020D01*
X008940Y013020D01*
X009040Y012921D01*
X009040Y012740D01*
X008590Y012740D01*
X008590Y012720D01*
X009040Y012720D01*
X009040Y012539D01*
X008771Y012270D01*
X008590Y012270D01*
X008590Y012720D01*
X008570Y012720D01*
X008570Y012270D01*
X008389Y012270D01*
X008120Y012539D01*
X008120Y012720D01*
X008570Y012720D01*
X008570Y012740D01*
X008120Y012740D01*
X008120Y012921D01*
X008220Y013020D01*
X000460Y013020D01*
X000460Y013019D02*
X008218Y013019D01*
X008120Y012860D02*
X000460Y012860D01*
X000460Y012702D02*
X008120Y012702D01*
X008120Y012543D02*
X000460Y012543D01*
X000460Y012385D02*
X008275Y012385D01*
X008570Y012385D02*
X008590Y012385D01*
X008590Y012543D02*
X008570Y012543D01*
X008570Y012702D02*
X008590Y012702D01*
X008885Y012385D02*
X009247Y012385D01*
X009100Y012543D02*
X009040Y012543D01*
X009040Y012702D02*
X009100Y012702D01*
X009100Y012860D02*
X009040Y012860D01*
X008942Y013019D02*
X009190Y013019D01*
X009239Y012068D02*
X008921Y012068D01*
X009060Y011909D02*
X009100Y011909D01*
X009100Y011751D02*
X009060Y011751D01*
X009060Y010800D02*
X009100Y010800D01*
X009100Y010641D02*
X009060Y010641D01*
X009011Y010483D02*
X009149Y010483D01*
X009307Y010324D02*
X008853Y010324D01*
X008823Y010166D02*
X009365Y010166D01*
X009389Y010190D02*
X009120Y009921D01*
X009120Y009740D01*
X009570Y009740D01*
X009570Y010190D01*
X009389Y010190D01*
X009570Y010166D02*
X009590Y010166D01*
X009590Y010190D02*
X009590Y009740D01*
X009570Y009740D01*
X009570Y009720D01*
X009120Y009720D01*
X009120Y009539D01*
X009389Y009270D01*
X009570Y009270D01*
X009570Y009720D01*
X009590Y009720D01*
X009590Y009740D01*
X010040Y009740D01*
X010040Y009921D01*
X009771Y010190D01*
X009590Y010190D01*
X009590Y010007D02*
X009570Y010007D01*
X009570Y009849D02*
X009590Y009849D01*
X009590Y009720D02*
X010040Y009720D01*
X010040Y009539D01*
X009771Y009270D01*
X009590Y009270D01*
X009590Y009720D01*
X009590Y009690D02*
X009570Y009690D01*
X009570Y009532D02*
X009590Y009532D01*
X009590Y009373D02*
X009570Y009373D01*
X009874Y009373D02*
X010042Y009373D01*
X010042Y009215D02*
X006942Y009215D01*
X007101Y009373D02*
X008258Y009373D01*
X008227Y009056D02*
X007840Y009056D01*
X007220Y009056D02*
X006784Y009056D01*
X006625Y008898D02*
X007112Y008898D01*
X007080Y008739D02*
X006467Y008739D01*
X006308Y008581D02*
X007105Y008581D01*
X007202Y008422D02*
X006150Y008422D01*
X005991Y008264D02*
X007561Y008264D01*
X007219Y008105D02*
X001500Y008105D01*
X001500Y007947D02*
X007127Y007947D01*
X007105Y007788D02*
X005058Y007788D01*
X004677Y007788D02*
X001500Y007788D01*
X001500Y007630D02*
X004484Y007630D01*
X004418Y007471D02*
X001500Y007471D01*
X001500Y007313D02*
X004418Y007313D01*
X004474Y007154D02*
X001500Y007154D01*
X001500Y006996D02*
X002034Y006996D01*
X001926Y006837D02*
X001500Y006837D01*
X001500Y006679D02*
X001893Y006679D01*
X001917Y006520D02*
X001500Y006520D01*
X001500Y006362D02*
X002012Y006362D01*
X002059Y006203D02*
X001500Y006203D01*
X001500Y006045D02*
X002200Y006045D01*
X002359Y005886D02*
X001500Y005886D01*
X001500Y005728D02*
X005317Y005728D01*
X005476Y005569D02*
X001500Y005569D01*
X001500Y005411D02*
X001604Y005411D01*
X001607Y005413D02*
X001500Y005306D01*
X001500Y009447D01*
X002363Y010310D01*
X004664Y010310D01*
X004725Y010249D01*
X004890Y010180D01*
X005070Y010180D01*
X005235Y010249D01*
X005361Y010375D01*
X005430Y010540D01*
X005430Y010720D01*
X005361Y010885D01*
X005235Y011011D01*
X005070Y011080D01*
X004890Y011080D01*
X004725Y011011D01*
X004664Y010950D01*
X002166Y010950D01*
X002049Y010901D01*
X000999Y009851D01*
X000909Y009761D01*
X000860Y009644D01*
X000860Y002366D01*
X000909Y002249D01*
X001699Y001459D01*
X001816Y001410D01*
X006166Y001410D01*
X006253Y001323D01*
X006430Y001250D01*
X007180Y001250D01*
X007357Y001323D01*
X007492Y001458D01*
X007565Y001635D01*
X007565Y001825D01*
X007492Y002002D01*
X007357Y002137D01*
X007180Y002210D01*
X006430Y002210D01*
X006253Y002137D01*
X006166Y002050D01*
X004822Y002050D01*
X004850Y002079D01*
X004923Y002254D01*
X004923Y002444D01*
X004850Y002619D01*
X004716Y002753D01*
X004541Y002826D01*
X004351Y002826D01*
X004176Y002753D01*
X004042Y002619D01*
X003969Y002444D01*
X003969Y002254D01*
X004042Y002079D01*
X004070Y002050D01*
X003090Y002050D01*
X003118Y002079D01*
X003191Y002254D01*
X003191Y002444D01*
X003118Y002619D01*
X002984Y002753D01*
X002809Y002826D01*
X002619Y002826D01*
X002444Y002753D01*
X002310Y002619D01*
X002237Y002444D01*
X002237Y002254D01*
X002310Y002079D01*
X002338Y002050D01*
X002013Y002050D01*
X001500Y002563D01*
X001500Y003773D01*
X001519Y003754D01*
X001582Y003692D01*
X001643Y003630D01*
X001643Y003630D01*
X001643Y003630D01*
X001731Y003630D01*
X001945Y003630D01*
X001948Y003633D01*
X001951Y003630D01*
X001996Y003630D01*
X001947Y003581D01*
X001947Y003403D01*
X001981Y003368D01*
X001947Y003334D01*
X001947Y003156D01*
X002073Y003030D01*
X002251Y003030D01*
X002285Y003064D01*
X002320Y003030D01*
X002498Y003030D01*
X002500Y003033D01*
X002503Y003030D01*
X002593Y003030D01*
X002748Y003030D01*
X002809Y002968D01*
X002871Y002907D01*
X003111Y002907D01*
X003237Y003033D01*
X003239Y003030D01*
X003541Y003030D01*
X003574Y003063D01*
X003608Y003030D01*
X003698Y003030D01*
X003909Y003030D01*
X003912Y003033D01*
X003914Y003030D01*
X004278Y003030D01*
X004339Y003092D01*
X004465Y003218D01*
X004465Y003429D01*
X004465Y003519D01*
X004465Y003519D01*
X004465Y003519D01*
X004404Y003581D01*
X004403Y003581D01*
X004354Y003630D01*
X004646Y003630D01*
X004648Y003633D01*
X004648Y003633D01*
X004648Y003581D01*
X004525Y003457D01*
X004525Y003156D01*
X004651Y003030D01*
X005014Y003030D01*
X005076Y003092D01*
X005202Y003218D01*
X005202Y003555D01*
X005202Y003635D01*
X005232Y003664D01*
X005262Y003635D01*
X005262Y003310D01*
X005248Y003290D01*
X005262Y003224D01*
X005262Y003156D01*
X005278Y003139D01*
X005283Y003116D01*
X005340Y003078D01*
X005387Y003030D01*
X005411Y003030D01*
X005431Y003017D01*
X005498Y003030D01*
X005566Y003030D01*
X005583Y003047D01*
X005606Y003052D01*
X005609Y003056D01*
X005634Y003030D01*
X005812Y003030D01*
X005815Y003033D01*
X005818Y003030D01*
X005908Y003030D01*
X006119Y003030D01*
X006183Y003094D01*
X006186Y003092D01*
X006248Y003030D01*
X006487Y003030D01*
X006613Y003156D01*
X006675Y003218D01*
X006675Y003396D01*
X006557Y003514D01*
X006673Y003630D01*
X006784Y003630D01*
X006735Y003581D01*
X006735Y003094D01*
X006797Y003033D01*
X006922Y002907D01*
X007162Y002907D01*
X007288Y003033D01*
X007291Y003030D01*
X007381Y003030D01*
X007654Y003030D01*
X007780Y003156D01*
X007780Y003704D01*
X007754Y003730D01*
X007780Y003756D01*
X007780Y004304D01*
X007654Y004430D01*
X007291Y004430D01*
X007229Y004369D01*
X007167Y004307D01*
X006922Y004307D01*
X006889Y004273D01*
X006856Y004307D01*
X006856Y004307D01*
X006766Y004307D01*
X006678Y004307D01*
X006678Y004307D01*
X006186Y004307D01*
X006152Y004273D01*
X006119Y004307D01*
X006057Y004307D01*
X005934Y004430D01*
X005756Y004430D01*
X005632Y004307D01*
X005449Y004307D01*
X005447Y004304D01*
X005444Y004307D01*
X005081Y004307D01*
X005048Y004273D01*
X005014Y004307D01*
X004926Y004307D01*
X004836Y004307D01*
X004651Y004307D01*
X004648Y004304D01*
X004646Y004307D01*
X004646Y004307D01*
X004556Y004307D01*
X004468Y004307D01*
X004468Y004307D01*
X004344Y004307D01*
X004342Y004304D01*
X004339Y004307D01*
X004032Y004307D01*
X003979Y004360D01*
X004043Y004360D01*
X004253Y004447D01*
X004380Y004574D01*
X004380Y004536D01*
X004392Y004491D01*
X004416Y004449D01*
X004449Y004416D01*
X004491Y004392D01*
X004536Y004380D01*
X004910Y004380D01*
X004910Y004910D01*
X004950Y004910D01*
X004950Y004950D01*
X004910Y004950D01*
X004910Y005480D01*
X004536Y005480D01*
X004491Y005468D01*
X004449Y005444D01*
X004416Y005411D01*
X004392Y005369D01*
X004380Y005324D01*
X004380Y005286D01*
X004253Y005413D01*
X004043Y005500D01*
X003817Y005500D01*
X003607Y005413D01*
X003447Y005253D01*
X003430Y005212D01*
X003413Y005253D01*
X003253Y005413D01*
X003043Y005500D01*
X002817Y005500D01*
X002607Y005413D01*
X002447Y005253D01*
X002430Y005212D01*
X002413Y005253D01*
X002253Y005413D01*
X002043Y005500D01*
X001817Y005500D01*
X001607Y005413D01*
X002256Y005411D02*
X002604Y005411D01*
X002446Y005252D02*
X002414Y005252D01*
X003256Y005411D02*
X003604Y005411D01*
X003446Y005252D02*
X003414Y005252D01*
X004256Y005411D02*
X004416Y005411D01*
X004910Y005411D02*
X004950Y005411D01*
X004950Y005480D02*
X004950Y004950D01*
X005480Y004950D01*
X005480Y005324D01*
X005468Y005369D01*
X005444Y005411D01*
X005411Y005444D01*
X005369Y005468D01*
X005324Y005480D01*
X004950Y005480D01*
X004950Y005252D02*
X004910Y005252D01*
X004910Y005094D02*
X004950Y005094D01*
X004950Y004935D02*
X008134Y004935D01*
X008120Y004921D02*
X008120Y004740D01*
X008570Y004740D01*
X008570Y005190D01*
X008389Y005190D01*
X008120Y004921D01*
X008120Y004777D02*
X005480Y004777D01*
X005480Y004910D02*
X004950Y004910D01*
X004950Y004380D01*
X005324Y004380D01*
X005369Y004392D01*
X005411Y004416D01*
X005444Y004449D01*
X005468Y004491D01*
X005480Y004536D01*
X005480Y004910D01*
X005480Y005094D02*
X008293Y005094D01*
X008379Y005252D02*
X005480Y005252D01*
X005444Y005411D02*
X005634Y005411D01*
X005480Y004618D02*
X008120Y004618D01*
X008120Y004539D02*
X008389Y004270D01*
X008570Y004270D01*
X008570Y004720D01*
X008120Y004720D01*
X008120Y004539D01*
X008200Y004460D02*
X005450Y004460D01*
X005075Y004301D02*
X005020Y004301D01*
X005014Y004307D02*
X005014Y004307D01*
X005014Y004307D01*
X004836Y004307D02*
X004836Y004307D01*
X004910Y004460D02*
X004950Y004460D01*
X004950Y004618D02*
X004910Y004618D01*
X004910Y004777D02*
X004950Y004777D01*
X004646Y004307D02*
X004646Y004307D01*
X004410Y004460D02*
X004266Y004460D01*
X004403Y003581D02*
X004403Y003581D01*
X004465Y003509D02*
X004576Y003509D01*
X004525Y003350D02*
X004465Y003350D01*
X004439Y003192D02*
X004525Y003192D01*
X004648Y003033D02*
X004281Y003033D01*
X004139Y002716D02*
X003021Y002716D01*
X003144Y002558D02*
X004016Y002558D01*
X003969Y002399D02*
X003191Y002399D01*
X003185Y002241D02*
X003975Y002241D01*
X004040Y002082D02*
X003120Y002082D01*
X002407Y002716D02*
X001500Y002716D01*
X001500Y002875D02*
X008100Y002875D01*
X008100Y002929D02*
X008100Y002531D01*
X008381Y002250D01*
X008779Y002250D01*
X009060Y002531D01*
X009060Y002929D01*
X008779Y003210D01*
X008381Y003210D01*
X008100Y002929D01*
X008204Y003033D02*
X007657Y003033D01*
X007780Y003192D02*
X008363Y003192D01*
X008381Y003250D02*
X008779Y003250D01*
X009060Y003531D01*
X009060Y003929D01*
X008779Y004210D01*
X008381Y004210D01*
X008100Y003929D01*
X008100Y003531D01*
X008381Y003250D01*
X008281Y003350D02*
X007780Y003350D01*
X007780Y003509D02*
X008123Y003509D01*
X008100Y003667D02*
X007780Y003667D01*
X007780Y003826D02*
X008100Y003826D01*
X008155Y003984D02*
X007780Y003984D01*
X007780Y004143D02*
X008314Y004143D01*
X008358Y004301D02*
X007780Y004301D01*
X008570Y004301D02*
X008590Y004301D01*
X008590Y004270D02*
X008771Y004270D01*
X009040Y004539D01*
X009040Y004720D01*
X008590Y004720D01*
X008590Y004740D01*
X008570Y004740D01*
X008570Y004720D01*
X008590Y004720D01*
X008590Y004270D01*
X008590Y004460D02*
X008570Y004460D01*
X008570Y004618D02*
X008590Y004618D01*
X008590Y004740D02*
X009040Y004740D01*
X009040Y004921D01*
X008771Y005190D01*
X008590Y005190D01*
X008590Y004740D01*
X008590Y004777D02*
X008570Y004777D01*
X008570Y004935D02*
X008590Y004935D01*
X008590Y005094D02*
X008570Y005094D01*
X008781Y005252D02*
X009379Y005252D01*
X009265Y005094D02*
X008867Y005094D01*
X009026Y004935D02*
X009106Y004935D01*
X009100Y004777D02*
X009040Y004777D01*
X009040Y004618D02*
X009100Y004618D01*
X009172Y004460D02*
X008960Y004460D01*
X008802Y004301D02*
X009330Y004301D01*
X009314Y004143D02*
X008846Y004143D01*
X009005Y003984D02*
X009155Y003984D01*
X009100Y003826D02*
X009060Y003826D01*
X009060Y003667D02*
X009100Y003667D01*
X009123Y003509D02*
X009037Y003509D01*
X008879Y003350D02*
X009281Y003350D01*
X009389Y003190D02*
X009120Y002921D01*
X009120Y002740D01*
X009570Y002740D01*
X009570Y003190D01*
X009389Y003190D01*
X009590Y003190D02*
X009590Y002740D01*
X009570Y002740D01*
X009570Y002720D01*
X009120Y002720D01*
X009120Y002539D01*
X009389Y002270D01*
X009570Y002270D01*
X009570Y002720D01*
X009590Y002720D01*
X009590Y002740D01*
X010040Y002740D01*
X010040Y002921D01*
X009771Y003190D01*
X009590Y003190D01*
X009590Y003033D02*
X009570Y003033D01*
X009570Y002875D02*
X009590Y002875D01*
X009590Y002720D02*
X010040Y002720D01*
X010040Y002539D01*
X009771Y002270D01*
X009590Y002270D01*
X009590Y002720D01*
X009590Y002716D02*
X009570Y002716D01*
X009570Y002558D02*
X009590Y002558D01*
X009590Y002399D02*
X009570Y002399D01*
X009260Y002399D02*
X008928Y002399D01*
X009060Y002558D02*
X009120Y002558D01*
X009120Y002716D02*
X009060Y002716D01*
X009060Y002875D02*
X009120Y002875D01*
X009232Y003033D02*
X008956Y003033D01*
X008797Y003192D02*
X010042Y003192D01*
X010042Y003350D02*
X009879Y003350D01*
X010037Y003509D02*
X010042Y003509D01*
X010042Y003984D02*
X010005Y003984D01*
X010042Y004143D02*
X009846Y004143D01*
X009830Y004301D02*
X010042Y004301D01*
X010042Y004460D02*
X009988Y004460D01*
X010042Y005094D02*
X009895Y005094D01*
X009781Y005252D02*
X010042Y005252D01*
X010042Y005411D02*
X009939Y005411D01*
X009944Y006045D02*
X010042Y006045D01*
X010042Y006203D02*
X009786Y006203D01*
X009862Y006362D02*
X010042Y006362D01*
X010042Y006520D02*
X010021Y006520D01*
X010040Y006679D02*
X010042Y006679D01*
X010040Y006837D02*
X010042Y006837D01*
X010042Y006996D02*
X009965Y006996D01*
X010042Y007154D02*
X009807Y007154D01*
X009857Y007313D02*
X010042Y007313D01*
X010042Y007471D02*
X010000Y007471D01*
X009590Y006679D02*
X009570Y006679D01*
X009570Y006520D02*
X009590Y006520D01*
X009590Y006362D02*
X009570Y006362D01*
X009374Y006203D02*
X009206Y006203D01*
X009216Y006045D02*
X009047Y006045D01*
X009060Y005886D02*
X009100Y005886D01*
X009100Y005728D02*
X009060Y005728D01*
X009060Y005569D02*
X009100Y005569D01*
X009221Y005411D02*
X008939Y005411D01*
X008221Y005411D02*
X007897Y005411D01*
X007986Y005569D02*
X008100Y005569D01*
X008100Y005728D02*
X008030Y005728D01*
X007213Y005411D02*
X006701Y005411D01*
X006860Y005569D02*
X007124Y005569D01*
X007105Y005728D02*
X007019Y005728D01*
X006590Y006203D02*
X006551Y006203D01*
X006485Y006362D02*
X006749Y006362D01*
X006909Y006520D02*
X006505Y006520D01*
X006555Y006679D02*
X007068Y006679D01*
X007228Y006837D02*
X006548Y006837D01*
X006476Y006996D02*
X007387Y006996D01*
X007547Y007154D02*
X006257Y007154D01*
X005975Y007313D02*
X007706Y007313D01*
X007857Y007471D02*
X007866Y007471D01*
X007969Y007630D02*
X008025Y007630D01*
X008005Y007788D02*
X008100Y007788D01*
X007253Y007471D02*
X005817Y007471D01*
X005658Y007630D02*
X007141Y007630D01*
X008933Y009056D02*
X009227Y009056D01*
X009100Y008898D02*
X009060Y008898D01*
X009060Y008739D02*
X009100Y008739D01*
X009100Y008581D02*
X009060Y008581D01*
X008902Y009373D02*
X009286Y009373D01*
X009128Y009532D02*
X009060Y009532D01*
X009060Y009690D02*
X009120Y009690D01*
X009120Y009849D02*
X009060Y009849D01*
X008982Y010007D02*
X009206Y010007D01*
X009795Y010166D02*
X010042Y010166D01*
X010042Y010324D02*
X009853Y010324D01*
X010011Y010483D02*
X010042Y010483D01*
X010042Y010007D02*
X009954Y010007D01*
X010040Y009849D02*
X010042Y009849D01*
X010040Y009690D02*
X010042Y009690D01*
X010032Y009532D02*
X010042Y009532D01*
X010042Y009056D02*
X009933Y009056D01*
X008337Y010166D02*
X007204Y010166D01*
X007362Y010324D02*
X008307Y010324D01*
X008239Y012068D02*
X000460Y012068D01*
X000460Y012226D02*
X010042Y012226D01*
X010042Y012068D02*
X009921Y012068D01*
X009913Y012385D02*
X010042Y012385D01*
X006921Y011909D02*
X000460Y011909D01*
X000460Y011751D02*
X006762Y011751D01*
X006604Y011592D02*
X000460Y011592D01*
X000460Y011434D02*
X006445Y011434D01*
X006287Y011275D02*
X000460Y011275D01*
X000460Y011117D02*
X006128Y011117D01*
X005970Y010958D02*
X005288Y010958D01*
X005397Y010800D02*
X005811Y010800D01*
X005653Y010641D02*
X005430Y010641D01*
X005406Y010483D02*
X005494Y010483D01*
X005336Y010324D02*
X005310Y010324D01*
X005177Y010166D02*
X002218Y010166D01*
X002060Y010007D02*
X002694Y010007D01*
X002584Y009849D02*
X001901Y009849D01*
X001743Y009690D02*
X002557Y009690D01*
X002596Y009532D02*
X001584Y009532D01*
X001500Y009373D02*
X002724Y009373D01*
X002937Y009215D02*
X001500Y009215D01*
X001500Y009056D02*
X003016Y009056D01*
X003307Y008898D02*
X001500Y008898D01*
X001500Y008739D02*
X003343Y008739D01*
X003466Y008581D02*
X001500Y008581D01*
X001500Y008422D02*
X003683Y008422D01*
X003758Y008264D02*
X001500Y008264D01*
X000860Y008264D02*
X000460Y008264D01*
X000460Y008422D02*
X000860Y008422D01*
X000860Y008581D02*
X000460Y008581D01*
X000460Y008739D02*
X000860Y008739D01*
X000860Y008898D02*
X000460Y008898D01*
X000460Y009056D02*
X000860Y009056D01*
X000860Y009215D02*
X000460Y009215D01*
X000460Y009373D02*
X000860Y009373D01*
X000860Y009532D02*
X000460Y009532D01*
X000460Y009690D02*
X000879Y009690D01*
X000996Y009849D02*
X000460Y009849D01*
X000460Y010007D02*
X001154Y010007D01*
X001313Y010166D02*
X000460Y010166D01*
X000460Y010324D02*
X001471Y010324D01*
X001630Y010483D02*
X000460Y010483D01*
X000460Y010641D02*
X001788Y010641D01*
X001947Y010800D02*
X000460Y010800D01*
X000460Y010958D02*
X004672Y010958D01*
X004620Y006996D02*
X003263Y006996D01*
X000860Y006996D02*
X000460Y006996D01*
X000460Y006837D02*
X000860Y006837D01*
X000860Y006679D02*
X000460Y006679D01*
X000460Y006520D02*
X000860Y006520D01*
X000860Y006362D02*
X000460Y006362D01*
X000460Y006203D02*
X000860Y006203D01*
X000860Y006045D02*
X000460Y006045D01*
X000460Y005886D02*
X000860Y005886D01*
X000860Y005728D02*
X000460Y005728D01*
X000460Y005569D02*
X000860Y005569D01*
X000860Y005411D02*
X000460Y005411D01*
X000460Y005252D02*
X000860Y005252D01*
X000860Y005094D02*
X000460Y005094D01*
X000460Y004935D02*
X000860Y004935D01*
X000860Y004777D02*
X000460Y004777D01*
X000460Y004618D02*
X000860Y004618D01*
X000860Y004460D02*
X000460Y004460D01*
X000460Y004301D02*
X000860Y004301D01*
X000860Y004143D02*
X000460Y004143D01*
X000460Y003984D02*
X000860Y003984D01*
X000860Y003826D02*
X000460Y003826D01*
X000460Y003667D02*
X000860Y003667D01*
X000860Y003509D02*
X000460Y003509D01*
X000460Y003350D02*
X000860Y003350D01*
X000860Y003192D02*
X000460Y003192D01*
X000460Y003033D02*
X000860Y003033D01*
X000860Y002875D02*
X000460Y002875D01*
X000460Y002716D02*
X000860Y002716D01*
X000860Y002558D02*
X000460Y002558D01*
X000460Y002399D02*
X000860Y002399D01*
X000917Y002241D02*
X000460Y002241D01*
X000460Y002082D02*
X001075Y002082D01*
X001234Y001924D02*
X000460Y001924D01*
X000460Y001765D02*
X001392Y001765D01*
X001551Y001607D02*
X000460Y001607D01*
X000460Y001448D02*
X001725Y001448D01*
X001981Y002082D02*
X002308Y002082D01*
X002243Y002241D02*
X001822Y002241D01*
X001664Y002399D02*
X002237Y002399D01*
X002284Y002558D02*
X001505Y002558D01*
X001500Y003033D02*
X002070Y003033D01*
X001947Y003192D02*
X001500Y003192D01*
X001500Y003350D02*
X001963Y003350D01*
X001947Y003509D02*
X001500Y003509D01*
X001500Y003667D02*
X001606Y003667D01*
X001582Y003692D02*
X001582Y003692D01*
X002254Y003033D02*
X002317Y003033D01*
X002503Y003030D02*
X002503Y003030D01*
X002503Y003030D01*
X003237Y003033D02*
X003237Y003033D01*
X003544Y003033D02*
X003605Y003033D01*
X003608Y003030D02*
X003608Y003030D01*
X003608Y003030D01*
X004753Y002716D02*
X008100Y002716D01*
X008100Y002558D02*
X004876Y002558D01*
X004923Y002399D02*
X008232Y002399D01*
X008253Y002082D02*
X007412Y002082D01*
X007524Y001924D02*
X008100Y001924D01*
X008100Y001765D02*
X007565Y001765D01*
X007553Y001607D02*
X008100Y001607D01*
X007845Y001448D02*
X007482Y001448D01*
X007687Y001290D02*
X007276Y001290D01*
X007363Y001131D02*
X007528Y001131D01*
X006334Y001290D02*
X000460Y001290D01*
X000460Y001131D02*
X006247Y001131D01*
X006106Y000973D02*
X000460Y000973D01*
X000460Y000814D02*
X006045Y000814D01*
X006045Y000656D02*
X000460Y000656D01*
X000460Y000497D02*
X006102Y000497D01*
X006198Y002082D02*
X004852Y002082D01*
X004917Y002241D02*
X010042Y002241D01*
X010042Y002399D02*
X009900Y002399D01*
X010040Y002558D02*
X010042Y002558D01*
X010040Y002716D02*
X010042Y002716D01*
X010040Y002875D02*
X010042Y002875D01*
X010042Y003033D02*
X009928Y003033D01*
X009907Y002082D02*
X010042Y002082D01*
X009253Y002082D02*
X008907Y002082D01*
X009060Y001924D02*
X009100Y001924D01*
X009100Y001765D02*
X009060Y001765D01*
X009060Y001607D02*
X009100Y001607D01*
X007291Y003030D02*
X007291Y003030D01*
X007291Y003030D01*
X007288Y003033D02*
X007288Y003033D01*
X006796Y003033D02*
X006490Y003033D01*
X006649Y003192D02*
X006735Y003192D01*
X006735Y003350D02*
X006675Y003350D01*
X006735Y003509D02*
X006562Y003509D01*
X006245Y003033D02*
X006122Y003033D01*
X005818Y003030D02*
X005818Y003030D01*
X005818Y003030D01*
X005631Y003033D02*
X005569Y003033D01*
X005384Y003033D02*
X005017Y003033D01*
X005176Y003192D02*
X005262Y003192D01*
X005262Y003350D02*
X005202Y003350D01*
X005202Y003509D02*
X005262Y003509D01*
X006119Y004307D02*
X006119Y004307D01*
X006119Y004307D01*
X006125Y004301D02*
X006180Y004301D01*
X006856Y004307D02*
X006856Y004307D01*
X006862Y004301D02*
X006917Y004301D01*
X000860Y007154D02*
X000460Y007154D01*
X000460Y007313D02*
X000860Y007313D01*
X000860Y007471D02*
X000460Y007471D01*
X000460Y007630D02*
X000860Y007630D01*
X000860Y007788D02*
X000460Y007788D01*
X000460Y007947D02*
X000860Y007947D01*
X000860Y008105D02*
X000460Y008105D01*
D18*
X009580Y009730D02*
X010052Y009730D01*
X010052Y002730D01*
X009580Y002730D01*
X010052Y009730D02*
X010052Y012155D01*
D19*
X008580Y009730D02*
X007005Y009730D01*
X005780Y008505D01*
X004080Y008505D01*
X004868Y007380D02*
X005455Y007380D01*
X006105Y006730D01*
X006105Y006105D02*
X005943Y006105D01*
X005380Y006668D01*
X002955Y006668D01*
X002568Y006130D02*
X002343Y006355D01*
X002343Y006668D01*
X002568Y006130D02*
X005368Y006130D01*
X005868Y005630D01*
X006468Y005630D01*
X008580Y007730D01*
X007980Y008230D02*
X007555Y007805D01*
X007980Y008230D02*
X009330Y008230D01*
X009580Y008480D01*
X009580Y008730D01*
X009580Y007730D02*
X009580Y007480D01*
X009080Y006980D01*
X009080Y006530D01*
X008780Y006230D01*
X008080Y006230D01*
X007555Y005705D01*
X006805Y007955D02*
X006805Y007980D01*
X007530Y008730D02*
X008580Y008730D01*
X004980Y010630D02*
X002230Y010630D01*
X001180Y009580D01*
X001180Y004905D01*
X001205Y004930D01*
X001930Y004930D01*
X001180Y004905D02*
X001180Y002430D01*
X001880Y001730D01*
X006805Y001730D01*
X006805Y000730D02*
X007580Y000730D01*
X008080Y001230D01*
X009580Y001230D01*
X009580Y000730D01*
X009580Y001230D02*
X009580Y001730D01*
D20*
X005505Y008905D02*
X007330Y010730D01*
X008580Y010730D01*
X009080Y011230D02*
X007280Y011230D01*
X005355Y009305D01*
X003330Y009305D01*
X002955Y009705D02*
X005155Y009705D01*
X007180Y011730D01*
X008580Y011730D01*
X009080Y011230D02*
X009580Y011730D01*
X005505Y008905D02*
X003705Y008905D01*
D21*
X003705Y008905D03*
X004080Y008505D03*
X003330Y009305D03*
X002955Y009705D03*
M02*
