G75*
G70*
%OFA0B0*%
%FSLAX24Y24*%
%IPPOS*%
%LPD*%
%AMOC8*
5,1,8,0,0,1.08239X$1,22.5*
%
%ADD10C,0.0030*%
%ADD11C,0.0060*%
%ADD12C,0.0080*%
%ADD13C,0.0143*%
%ADD14C,0.0050*%
%ADD15C,0.0100*%
D10*
X000370Y005470D02*
X000660Y005470D01*
X000515Y005470D02*
X000467Y005518D01*
X000467Y005615D01*
X000515Y005663D01*
X000660Y005663D01*
X000612Y005813D02*
X000660Y005861D01*
X000612Y005813D02*
X000418Y005813D01*
X000467Y005765D02*
X000467Y005861D01*
X000467Y005961D02*
X000467Y006058D01*
X000418Y006009D02*
X000612Y006009D01*
X000660Y006058D01*
X000660Y006158D02*
X000660Y006303D01*
X000612Y006351D01*
X000515Y006351D01*
X000467Y006303D01*
X000467Y006158D01*
X000757Y006158D01*
X000801Y006108D02*
X000850Y006108D01*
X000947Y006108D02*
X001140Y006108D01*
X001140Y006156D02*
X001140Y006059D01*
X001140Y005958D02*
X000995Y005958D01*
X000947Y005910D01*
X000947Y005813D01*
X000995Y005765D01*
X000995Y005663D02*
X001092Y005663D01*
X001140Y005615D01*
X001140Y005470D01*
X001237Y005470D02*
X000947Y005470D01*
X000947Y005615D01*
X000995Y005663D01*
X000850Y005765D02*
X001140Y005765D01*
X000947Y006059D02*
X000947Y006108D01*
X000850Y006256D02*
X000850Y006304D01*
X001140Y006304D01*
X001140Y006256D02*
X001140Y006352D01*
X001092Y006452D02*
X000898Y006452D01*
X000850Y006501D01*
X000850Y006597D01*
X000898Y006646D01*
X000995Y006646D01*
X001043Y006597D01*
X000947Y006597D01*
X000947Y006501D01*
X001043Y006501D01*
X001043Y006597D01*
X001092Y006646D02*
X001140Y006597D01*
X001140Y006501D01*
X001092Y006452D01*
X000947Y006747D02*
X000947Y006844D01*
X000898Y006795D02*
X001092Y006795D01*
X001140Y006844D01*
X001092Y006943D02*
X000995Y006943D01*
X000947Y006992D01*
X000947Y007088D01*
X000995Y007137D01*
X001043Y007137D01*
X001043Y006943D01*
X001092Y006943D02*
X001140Y006992D01*
X001140Y007088D01*
X001092Y007238D02*
X000947Y007238D01*
X001092Y007238D02*
X001140Y007286D01*
X001140Y007431D01*
X000947Y007431D01*
X000947Y007533D02*
X001092Y007533D01*
X001140Y007581D01*
X001092Y007629D01*
X001140Y007678D01*
X001092Y007726D01*
X000947Y007726D01*
X000995Y007827D02*
X000947Y007876D01*
X000947Y007972D01*
X000995Y008021D01*
X001043Y008021D01*
X001043Y007827D01*
X000995Y007827D02*
X001092Y007827D01*
X001140Y007876D01*
X001140Y007972D01*
X001140Y008122D02*
X000947Y008122D01*
X000947Y008267D01*
X000995Y008315D01*
X001140Y008315D01*
X001140Y008417D02*
X001140Y008465D01*
X001092Y008465D01*
X001092Y008417D01*
X001140Y008417D01*
X001092Y008564D02*
X000995Y008564D01*
X000947Y008612D01*
X000947Y008709D01*
X000995Y008757D01*
X001092Y008757D01*
X001140Y008709D01*
X001140Y008612D01*
X001092Y008564D01*
X001140Y008858D02*
X000947Y008858D01*
X001043Y008858D02*
X000947Y008955D01*
X000947Y009004D01*
X000995Y009104D02*
X001092Y009104D01*
X001140Y009152D01*
X001140Y009298D01*
X001188Y009298D02*
X001237Y009249D01*
X001237Y009201D01*
X001188Y009298D02*
X000947Y009298D01*
X000947Y009152D01*
X000995Y009104D01*
X000660Y009153D02*
X000660Y009250D01*
X000660Y009202D02*
X000467Y009202D01*
X000467Y009153D01*
X000370Y009202D02*
X000321Y009202D01*
X000515Y009052D02*
X000467Y009004D01*
X000467Y008858D01*
X000370Y008858D02*
X000660Y008858D01*
X000660Y009004D01*
X000612Y009052D01*
X000515Y009052D01*
X000515Y008757D02*
X000467Y008709D01*
X000467Y008612D01*
X000515Y008564D01*
X000612Y008564D01*
X000660Y008612D01*
X000660Y008709D01*
X000612Y008757D01*
X000515Y008757D01*
X000467Y008463D02*
X000708Y008463D01*
X000757Y008414D01*
X000757Y008366D01*
X000660Y008318D02*
X000660Y008463D01*
X000660Y008318D02*
X000612Y008269D01*
X000467Y008269D01*
X000612Y008170D02*
X000660Y008170D01*
X000660Y008122D01*
X000612Y008122D01*
X000612Y008170D01*
X000660Y008022D02*
X000660Y007925D01*
X000660Y007974D02*
X000467Y007974D01*
X000467Y007925D01*
X000467Y007825D02*
X000563Y007680D01*
X000660Y007825D01*
X000660Y007680D02*
X000370Y007680D01*
X000370Y007532D02*
X000321Y007532D01*
X000467Y007532D02*
X000660Y007532D01*
X000660Y007580D02*
X000660Y007483D01*
X000612Y007382D02*
X000467Y007382D01*
X000467Y007483D02*
X000467Y007532D01*
X000612Y007382D02*
X000660Y007334D01*
X000612Y007286D01*
X000660Y007237D01*
X000612Y007189D01*
X000467Y007189D01*
X000370Y007088D02*
X000660Y006894D01*
X000660Y006599D02*
X000370Y006793D01*
X000467Y006501D02*
X000515Y006501D01*
X000515Y006452D01*
X000467Y006452D01*
X000467Y006501D01*
X000612Y006501D02*
X000612Y006452D01*
X000660Y006452D01*
X000660Y006501D01*
X000612Y006501D01*
X001681Y006315D02*
X001681Y006025D01*
X001681Y006122D02*
X001826Y006122D01*
X001874Y006170D01*
X001874Y006267D01*
X001826Y006315D01*
X001681Y006315D01*
X001777Y006122D02*
X001874Y006025D01*
X001975Y006025D02*
X002169Y006218D01*
X002169Y006267D01*
X002120Y006315D01*
X002024Y006315D01*
X001975Y006267D01*
X001975Y006025D02*
X002169Y006025D01*
X002556Y006073D02*
X002604Y006025D01*
X002701Y006025D01*
X002749Y006073D01*
X002749Y006122D01*
X002701Y006170D01*
X002652Y006170D01*
X002701Y006170D02*
X002749Y006218D01*
X002749Y006267D01*
X002701Y006315D01*
X002604Y006315D01*
X002556Y006267D01*
X002850Y006267D02*
X002899Y006315D01*
X002995Y006315D01*
X003044Y006267D01*
X003044Y006218D01*
X002995Y006170D01*
X003044Y006122D01*
X003044Y006073D01*
X002995Y006025D01*
X002899Y006025D01*
X002850Y006073D01*
X002947Y006170D02*
X002995Y006170D01*
X003956Y006122D02*
X004101Y006122D01*
X004149Y006170D01*
X004149Y006267D01*
X004101Y006315D01*
X003956Y006315D01*
X003956Y006025D01*
X004052Y006122D02*
X004149Y006025D01*
X004250Y006025D02*
X004444Y006025D01*
X004347Y006025D02*
X004347Y006315D01*
X004250Y006218D01*
X004706Y006267D02*
X004754Y006315D01*
X004851Y006315D01*
X004899Y006267D01*
X004899Y006218D01*
X004851Y006170D01*
X004899Y006122D01*
X004899Y006073D01*
X004851Y006025D01*
X004754Y006025D01*
X004706Y006073D01*
X004802Y006170D02*
X004851Y006170D01*
X005000Y006073D02*
X005049Y006025D01*
X005145Y006025D01*
X005194Y006073D01*
X005194Y006122D01*
X005145Y006170D01*
X005097Y006170D01*
X005145Y006170D02*
X005194Y006218D01*
X005194Y006267D01*
X005145Y006315D01*
X005049Y006315D01*
X005000Y006267D01*
X006320Y006029D02*
X006320Y005782D01*
X006382Y005720D01*
X006505Y005720D01*
X006567Y005782D01*
X006567Y005905D01*
X006443Y005905D01*
X006320Y006029D02*
X006382Y006090D01*
X006505Y006090D01*
X006567Y006029D01*
X006688Y006090D02*
X006873Y006090D01*
X006935Y006029D01*
X006935Y005905D01*
X006873Y005843D01*
X006688Y005843D01*
X006688Y005720D02*
X006688Y006090D01*
X007057Y006090D02*
X007304Y005720D01*
X007057Y005720D02*
X007304Y006090D01*
X007132Y007220D02*
X007132Y007590D01*
X007009Y007590D02*
X007256Y007590D01*
X006887Y007590D02*
X006887Y007220D01*
X006641Y007590D01*
X006641Y007220D01*
X006518Y007220D02*
X006395Y007220D01*
X006457Y007220D02*
X006457Y007590D01*
X006518Y007590D02*
X006395Y007590D01*
X007397Y009020D02*
X007300Y009117D01*
X007590Y009117D01*
X007590Y009213D02*
X007590Y009020D01*
X007542Y009315D02*
X007348Y009508D01*
X007542Y009508D01*
X007590Y009460D01*
X007590Y009363D01*
X007542Y009315D01*
X007348Y009315D01*
X007300Y009363D01*
X007300Y009460D01*
X007348Y009508D01*
X007348Y009609D02*
X007300Y009658D01*
X007300Y009754D01*
X007348Y009803D01*
X007542Y009609D01*
X007590Y009658D01*
X007590Y009754D01*
X007542Y009803D01*
X007348Y009803D01*
X007397Y009904D02*
X007397Y010049D01*
X007445Y010097D01*
X007590Y010097D01*
X007590Y010199D02*
X007300Y010199D01*
X007300Y010392D01*
X007445Y010295D02*
X007445Y010199D01*
X007397Y009904D02*
X007590Y009904D01*
X007542Y009609D02*
X007348Y009609D01*
X006115Y009643D02*
X006115Y009740D01*
X006067Y009788D01*
X006115Y009890D02*
X005922Y010083D01*
X005873Y010083D01*
X005825Y010035D01*
X005825Y009938D01*
X005873Y009890D01*
X005873Y009788D02*
X005825Y009740D01*
X005825Y009643D01*
X005873Y009595D01*
X006067Y009595D01*
X006115Y009643D01*
X006115Y009890D02*
X006115Y010083D01*
X004647Y011660D02*
X004454Y011660D01*
X004454Y011370D01*
X004353Y011418D02*
X004353Y011515D01*
X004304Y011563D01*
X004159Y011563D01*
X004159Y011273D01*
X004159Y011370D02*
X004304Y011370D01*
X004353Y011418D01*
X004454Y011515D02*
X004551Y011515D01*
X004058Y011467D02*
X004058Y011418D01*
X004010Y011370D01*
X003913Y011370D01*
X003865Y011418D01*
X003865Y011467D01*
X003913Y011515D01*
X004010Y011515D01*
X004058Y011467D01*
X004010Y011515D02*
X004058Y011563D01*
X004058Y011612D01*
X004010Y011660D01*
X003913Y011660D01*
X003865Y011612D01*
X003865Y011563D01*
X003913Y011515D01*
X003763Y011370D02*
X003570Y011370D01*
X003667Y011370D02*
X003667Y011660D01*
X003570Y011563D01*
X003333Y011563D02*
X003285Y011515D01*
X003333Y011467D01*
X003333Y011418D01*
X003285Y011370D01*
X003188Y011370D01*
X003140Y011418D01*
X003038Y011418D02*
X002990Y011370D01*
X002893Y011370D01*
X002845Y011418D01*
X002845Y011612D01*
X002893Y011660D01*
X002990Y011660D01*
X003038Y011612D01*
X003140Y011612D02*
X003188Y011660D01*
X003285Y011660D01*
X003333Y011612D01*
X003333Y011563D01*
X003285Y011515D02*
X003236Y011515D01*
X002019Y011265D02*
X001825Y011265D01*
X001825Y010975D01*
X001724Y011023D02*
X001724Y011120D01*
X001676Y011168D01*
X001531Y011168D01*
X001531Y010878D01*
X001531Y010975D02*
X001676Y010975D01*
X001724Y011023D01*
X001825Y011120D02*
X001922Y011120D01*
X001430Y011072D02*
X001430Y011023D01*
X001381Y010975D01*
X001284Y010975D01*
X001236Y011023D01*
X001236Y011072D01*
X001284Y011120D01*
X001381Y011120D01*
X001430Y011072D01*
X001381Y011120D02*
X001430Y011168D01*
X001430Y011217D01*
X001381Y011265D01*
X001284Y011265D01*
X001236Y011217D01*
X001236Y011168D01*
X001284Y011120D01*
X001135Y010975D02*
X000941Y010975D01*
X001038Y010975D02*
X001038Y011265D01*
X000941Y011168D01*
X000660Y011166D02*
X000467Y011166D01*
X000467Y011117D01*
X000467Y011017D02*
X000563Y010872D01*
X000660Y011017D01*
X000660Y011117D02*
X000660Y011214D01*
X000660Y011314D02*
X000370Y011507D01*
X000370Y011609D02*
X000370Y011754D01*
X000418Y011802D01*
X000515Y011802D01*
X000563Y011754D01*
X000563Y011609D01*
X000563Y011705D02*
X000660Y011802D01*
X000612Y011903D02*
X000563Y011952D01*
X000563Y012097D01*
X000515Y012097D02*
X000660Y012097D01*
X000660Y011952D01*
X000612Y011903D01*
X000467Y011952D02*
X000467Y012048D01*
X000515Y012097D01*
X000515Y012198D02*
X000467Y012246D01*
X000467Y012391D01*
X000467Y012493D02*
X000467Y012638D01*
X000515Y012686D01*
X000612Y012686D01*
X000660Y012638D01*
X000660Y012493D01*
X000757Y012493D02*
X000467Y012493D01*
X000612Y012391D02*
X000563Y012343D01*
X000563Y012246D01*
X000515Y012198D01*
X000660Y012198D02*
X000660Y012343D01*
X000612Y012391D01*
X000612Y012787D02*
X000515Y012787D01*
X000467Y012836D01*
X000467Y012981D01*
X000370Y012981D02*
X000660Y012981D01*
X000660Y012836D01*
X000612Y012787D01*
X000612Y013082D02*
X000563Y013130D01*
X000563Y013275D01*
X000515Y013275D02*
X000660Y013275D01*
X000660Y013130D01*
X000612Y013082D01*
X000467Y013130D02*
X000467Y013227D01*
X000515Y013275D01*
X000467Y013376D02*
X000467Y013522D01*
X000515Y013570D01*
X000660Y013570D01*
X000612Y013671D02*
X000660Y013720D01*
X000660Y013865D01*
X000612Y013966D02*
X000660Y014014D01*
X000660Y014111D01*
X000563Y014159D02*
X000563Y013966D01*
X000515Y013966D02*
X000612Y013966D01*
X000515Y013966D02*
X000467Y014014D01*
X000467Y014111D01*
X000515Y014159D01*
X000563Y014159D01*
X000563Y014260D02*
X000467Y014357D01*
X000467Y014406D01*
X000467Y014260D02*
X000660Y014260D01*
X000612Y013671D02*
X000515Y013671D01*
X000467Y013720D01*
X000467Y013865D01*
X000467Y013376D02*
X000660Y013376D01*
X001079Y012590D02*
X001031Y012542D01*
X001031Y012348D01*
X001079Y012300D01*
X001176Y012300D01*
X001224Y012348D01*
X001325Y012445D02*
X001519Y012445D01*
X001470Y012300D02*
X001470Y012590D01*
X001325Y012445D01*
X001224Y012542D02*
X001176Y012590D01*
X001079Y012590D01*
X000660Y011609D02*
X000370Y011609D01*
X000370Y011166D02*
X000321Y011166D01*
X000370Y010872D02*
X000660Y010872D01*
X000660Y010772D02*
X000660Y010676D01*
X000660Y010724D02*
X000467Y010724D01*
X000467Y010676D01*
X000467Y010574D02*
X000612Y010574D01*
X000660Y010526D01*
X000612Y010478D01*
X000660Y010429D01*
X000612Y010381D01*
X000467Y010381D01*
X000370Y010280D02*
X000660Y010086D01*
X000563Y009985D02*
X000563Y009792D01*
X000515Y009792D02*
X000612Y009792D01*
X000660Y009840D01*
X000660Y009937D01*
X000563Y009985D02*
X000515Y009985D01*
X000467Y009937D01*
X000467Y009840D01*
X000515Y009792D01*
X000515Y009690D02*
X000467Y009642D01*
X000467Y009497D01*
X000370Y009497D02*
X000660Y009497D01*
X000660Y009642D01*
X000612Y009690D01*
X000515Y009690D01*
X000612Y009398D02*
X000660Y009398D01*
X000660Y009350D01*
X000612Y009350D01*
X000612Y009398D01*
X000370Y010724D02*
X000321Y010724D01*
X000321Y007974D02*
X000370Y007974D01*
X005645Y012570D02*
X005838Y012570D01*
X005742Y012570D02*
X005742Y012860D01*
X005645Y012763D01*
X005940Y012812D02*
X005988Y012860D01*
X006085Y012860D01*
X006133Y012812D01*
X006133Y012763D01*
X005940Y012570D01*
X006133Y012570D01*
X006234Y012570D02*
X006234Y012860D01*
X006331Y012763D01*
X006428Y012860D01*
X006428Y012570D01*
X006529Y012570D02*
X006529Y012860D01*
X006577Y012763D02*
X006674Y012763D01*
X006722Y012715D01*
X006722Y012570D01*
X006824Y012570D02*
X007017Y012570D01*
X007017Y012763D02*
X006824Y012570D01*
X006824Y012763D02*
X007017Y012763D01*
X006577Y012763D02*
X006529Y012715D01*
X006595Y003294D02*
X006595Y003100D01*
X006885Y003100D01*
X006885Y002999D02*
X006692Y002999D01*
X006740Y003100D02*
X006740Y003197D01*
X006885Y002999D02*
X006885Y002854D01*
X006837Y002806D01*
X006692Y002806D01*
X006595Y002608D02*
X006885Y002608D01*
X006885Y002511D02*
X006885Y002705D01*
X006692Y002511D02*
X006595Y002608D01*
X006485Y002654D02*
X006485Y002751D01*
X006437Y002799D01*
X006485Y002900D02*
X006485Y003094D01*
X006485Y002997D02*
X006195Y002997D01*
X006292Y002900D01*
X006243Y002799D02*
X006195Y002751D01*
X006195Y002654D01*
X006243Y002606D01*
X006437Y002606D01*
X006485Y002654D01*
X006210Y001941D02*
X006155Y001941D01*
X006100Y001886D01*
X006100Y001721D01*
X006155Y001610D02*
X006210Y001610D01*
X006265Y001555D01*
X006265Y001444D01*
X006210Y001389D01*
X006210Y001278D02*
X005935Y001278D01*
X005990Y001389D02*
X006045Y001389D01*
X006100Y001444D01*
X006100Y001555D01*
X006155Y001610D01*
X006265Y001721D02*
X006265Y001886D01*
X006210Y001941D01*
X006100Y001886D02*
X006045Y001941D01*
X005990Y001941D01*
X005935Y001886D01*
X005935Y001721D01*
X006265Y001721D01*
X005990Y001610D02*
X005935Y001555D01*
X005935Y001444D01*
X005990Y001389D01*
X006210Y001278D02*
X006265Y001223D01*
X006265Y001113D01*
X006210Y001058D01*
X005935Y001058D01*
X006100Y000947D02*
X006045Y000892D01*
X006045Y000782D01*
X006100Y000726D01*
X006210Y000726D01*
X006265Y000782D01*
X006265Y000892D01*
X006210Y000947D01*
X006100Y000947D01*
X006100Y000615D02*
X005990Y000615D01*
X005935Y000560D01*
X005935Y000395D01*
X006265Y000395D01*
X006155Y000395D02*
X006155Y000560D01*
X006100Y000615D01*
D11*
X006480Y000330D02*
X006480Y001130D01*
X006580Y001230D01*
X006480Y001330D01*
X006480Y002130D01*
X006580Y002230D01*
X007380Y002230D01*
X007480Y002130D01*
X007480Y001330D01*
X007380Y001230D01*
X007480Y001130D01*
X007480Y000330D01*
X007380Y000230D01*
X006580Y000230D01*
X006480Y000330D01*
X007880Y000480D02*
X007880Y012980D01*
X007882Y013010D01*
X007887Y013040D01*
X007896Y013069D01*
X007909Y013096D01*
X007924Y013122D01*
X007943Y013146D01*
X007964Y013167D01*
X007988Y013186D01*
X008014Y013201D01*
X008041Y013214D01*
X008070Y013223D01*
X008100Y013228D01*
X008130Y013230D01*
X010030Y013230D01*
X010060Y013228D01*
X010090Y013223D01*
X010119Y013214D01*
X010146Y013201D01*
X010172Y013186D01*
X010196Y013167D01*
X010217Y013146D01*
X010236Y013122D01*
X010251Y013096D01*
X010264Y013069D01*
X010273Y013040D01*
X010278Y013010D01*
X010280Y012980D01*
X010280Y000480D01*
X010278Y000450D01*
X010273Y000420D01*
X010264Y000391D01*
X010251Y000364D01*
X010236Y000338D01*
X010217Y000314D01*
X010196Y000293D01*
X010172Y000274D01*
X010146Y000259D01*
X010119Y000246D01*
X010090Y000237D01*
X010060Y000232D01*
X010030Y000230D01*
X008130Y000230D01*
X008100Y000232D01*
X008070Y000237D01*
X008041Y000246D01*
X008014Y000259D01*
X007988Y000274D01*
X007964Y000293D01*
X007943Y000314D01*
X007924Y000338D01*
X007909Y000364D01*
X007896Y000391D01*
X007887Y000420D01*
X007882Y000450D01*
X007880Y000480D01*
X008180Y007230D02*
X009980Y007230D01*
X010014Y007232D01*
X010047Y007238D01*
X010079Y007247D01*
X010110Y007260D01*
X010140Y007276D01*
X010167Y007295D01*
X010192Y007318D01*
X010215Y007343D01*
X010234Y007370D01*
X010250Y007400D01*
X010263Y007431D01*
X010272Y007463D01*
X010278Y007496D01*
X010280Y007530D01*
X008180Y007230D02*
X008146Y007232D01*
X008113Y007238D01*
X008081Y007247D01*
X008050Y007260D01*
X008020Y007276D01*
X007993Y007295D01*
X007968Y007318D01*
X007945Y007343D01*
X007926Y007370D01*
X007910Y007400D01*
X007897Y007431D01*
X007888Y007463D01*
X007882Y007496D01*
X007880Y007530D01*
D12*
X007095Y007074D02*
X006465Y007074D01*
X006465Y007073D02*
X006449Y007068D01*
X006433Y007060D01*
X006419Y007050D01*
X006407Y007038D01*
X006397Y007023D01*
X006390Y007007D01*
X006386Y006990D01*
X006385Y006973D01*
X006387Y006955D01*
X006387Y006405D02*
X006385Y006387D01*
X006386Y006370D01*
X006390Y006353D01*
X006397Y006337D01*
X006407Y006322D01*
X006419Y006310D01*
X006433Y006300D01*
X006449Y006292D01*
X006465Y006287D01*
X006465Y006286D02*
X007095Y006286D01*
X007095Y006287D02*
X007111Y006292D01*
X007127Y006300D01*
X007141Y006310D01*
X007153Y006322D01*
X007163Y006337D01*
X007170Y006353D01*
X007174Y006370D01*
X007175Y006387D01*
X007173Y006405D01*
X007173Y006955D02*
X007175Y006973D01*
X007174Y006990D01*
X007170Y007007D01*
X007163Y007023D01*
X007153Y007038D01*
X007141Y007050D01*
X007127Y007060D01*
X007111Y007068D01*
X007095Y007073D01*
X007095Y005574D02*
X006465Y005574D01*
X006465Y005573D02*
X006449Y005568D01*
X006433Y005560D01*
X006419Y005550D01*
X006407Y005538D01*
X006397Y005523D01*
X006390Y005507D01*
X006386Y005490D01*
X006385Y005473D01*
X006387Y005455D01*
X006387Y004905D02*
X006385Y004887D01*
X006386Y004870D01*
X006390Y004853D01*
X006397Y004837D01*
X006407Y004822D01*
X006419Y004810D01*
X006433Y004800D01*
X006449Y004792D01*
X006465Y004787D01*
X006465Y004786D02*
X007095Y004786D01*
X007095Y004787D02*
X007111Y004792D01*
X007127Y004800D01*
X007141Y004810D01*
X007153Y004822D01*
X007163Y004837D01*
X007170Y004853D01*
X007174Y004870D01*
X007175Y004887D01*
X007173Y004905D01*
X007173Y005455D02*
X007175Y005473D01*
X007174Y005490D01*
X007170Y005507D01*
X007163Y005523D01*
X007153Y005538D01*
X007141Y005550D01*
X007127Y005560D01*
X007111Y005568D01*
X007095Y005573D01*
X006643Y010955D02*
X005817Y010955D01*
X005088Y011487D02*
X005088Y011723D01*
X005817Y012255D02*
X006643Y012255D01*
X007372Y011723D02*
X007372Y011487D01*
D13*
X007037Y011684D03*
D14*
X005115Y000144D02*
X002045Y000144D01*
X002045Y001719D02*
X002045Y002782D01*
X002045Y003766D02*
X005115Y003766D01*
X004840Y003766D02*
X004407Y003766D01*
X005115Y002782D02*
X005115Y001719D01*
X002753Y003766D02*
X002320Y003766D01*
X008180Y000730D02*
X008182Y000770D01*
X008188Y000809D01*
X008198Y000848D01*
X008211Y000885D01*
X008229Y000921D01*
X008250Y000955D01*
X008274Y000987D01*
X008301Y001016D01*
X008331Y001043D01*
X008363Y001066D01*
X008398Y001086D01*
X008434Y001102D01*
X008472Y001115D01*
X008511Y001124D01*
X008550Y001129D01*
X008590Y001130D01*
X008630Y001127D01*
X008669Y001120D01*
X008707Y001109D01*
X008745Y001095D01*
X008780Y001076D01*
X008813Y001055D01*
X008845Y001030D01*
X008873Y001002D01*
X008899Y000972D01*
X008921Y000939D01*
X008940Y000904D01*
X008956Y000867D01*
X008968Y000829D01*
X008976Y000790D01*
X008980Y000750D01*
X008980Y000710D01*
X008976Y000670D01*
X008968Y000631D01*
X008956Y000593D01*
X008940Y000556D01*
X008921Y000521D01*
X008899Y000488D01*
X008873Y000458D01*
X008845Y000430D01*
X008813Y000405D01*
X008780Y000384D01*
X008745Y000365D01*
X008707Y000351D01*
X008669Y000340D01*
X008630Y000333D01*
X008590Y000330D01*
X008550Y000331D01*
X008511Y000336D01*
X008472Y000345D01*
X008434Y000358D01*
X008398Y000374D01*
X008363Y000394D01*
X008331Y000417D01*
X008301Y000444D01*
X008274Y000473D01*
X008250Y000505D01*
X008229Y000539D01*
X008211Y000575D01*
X008198Y000612D01*
X008188Y000651D01*
X008182Y000690D01*
X008180Y000730D01*
D15*
X004464Y008021D02*
X002496Y008021D01*
X002496Y009989D01*
X004464Y009989D01*
X004464Y008021D01*
X002692Y009596D02*
X002694Y009623D01*
X002700Y009650D01*
X002709Y009676D01*
X002722Y009700D01*
X002738Y009723D01*
X002757Y009742D01*
X002779Y009759D01*
X002803Y009773D01*
X002828Y009783D01*
X002855Y009790D01*
X002882Y009793D01*
X002910Y009792D01*
X002937Y009787D01*
X002963Y009779D01*
X002987Y009767D01*
X003010Y009751D01*
X003031Y009733D01*
X003048Y009712D01*
X003063Y009688D01*
X003074Y009663D01*
X003082Y009637D01*
X003086Y009610D01*
X003086Y009582D01*
X003082Y009555D01*
X003074Y009529D01*
X003063Y009504D01*
X003048Y009480D01*
X003031Y009459D01*
X003010Y009441D01*
X002988Y009425D01*
X002963Y009413D01*
X002937Y009405D01*
X002910Y009400D01*
X002882Y009399D01*
X002855Y009402D01*
X002828Y009409D01*
X002803Y009419D01*
X002779Y009433D01*
X002757Y009450D01*
X002738Y009469D01*
X002722Y009492D01*
X002709Y009516D01*
X002700Y009542D01*
X002694Y009569D01*
X002692Y009596D01*
M02*
