G75*
G70*
%OFA0B0*%
%FSLAX24Y24*%
%IPPOS*%
%LPD*%
%AMOC8*
5,1,8,0,0,1.08239X$1,22.5*
%
%ADD10R,0.0828X0.0631*%
%ADD11R,0.0789X0.0710*%
%ADD12R,0.0710X0.0789*%
%ADD13R,0.0710X0.0790*%
%ADD14C,0.0640*%
%ADD15OC8,0.0640*%
%ADD16C,0.0640*%
%ADD17R,0.0330X0.0580*%
%ADD18R,0.0867X0.1025*%
%ADD19R,0.0277X0.0989*%
%ADD20C,0.0474*%
%ADD21R,0.0530X0.0180*%
%ADD22R,0.0180X0.0530*%
%ADD23C,0.1390*%
D10*
X005514Y011133D03*
X005514Y012077D03*
X007246Y012077D03*
X007246Y011133D03*
D11*
X006730Y009956D03*
X006730Y008854D03*
X007355Y003931D03*
X007355Y002829D03*
D12*
X002331Y011805D03*
X003354Y012180D03*
X004456Y012180D03*
X001229Y011805D03*
D13*
X001970Y005480D03*
X003090Y005480D03*
X004070Y005480D03*
X005190Y005480D03*
D14*
X008580Y000730D03*
D15*
X008580Y001730D03*
X008580Y002730D03*
X008580Y003730D03*
X008580Y004730D03*
X008580Y005730D03*
X008580Y006730D03*
X008580Y007730D03*
X008580Y008730D03*
X008580Y009730D03*
X008580Y010730D03*
X008580Y011730D03*
X008580Y012730D03*
X009580Y012730D03*
X009580Y011730D03*
X009580Y010730D03*
X009580Y009730D03*
X009580Y008730D03*
X009580Y007730D03*
X009580Y006730D03*
X009580Y005730D03*
X009580Y004730D03*
X009580Y003730D03*
X009580Y002730D03*
X009580Y001730D03*
X009580Y000730D03*
D16*
X007260Y000730D02*
X006700Y000730D01*
X006700Y001730D02*
X007260Y001730D01*
D17*
X006957Y005180D03*
X006603Y005180D03*
X006603Y006680D03*
X006957Y006680D03*
D18*
X001848Y001168D03*
X001848Y003333D03*
X005312Y003333D03*
X005312Y001168D03*
D19*
X004210Y003555D03*
X003895Y003555D03*
X003580Y003555D03*
X003265Y003555D03*
X002950Y003555D03*
D20*
X002714Y002349D03*
X004446Y002349D03*
D21*
X004858Y008316D03*
X004858Y008513D03*
X004858Y008710D03*
X004858Y008907D03*
X004858Y009103D03*
X004858Y009300D03*
X004858Y009497D03*
X004858Y009694D03*
X002102Y009694D03*
X002102Y009497D03*
X002102Y009300D03*
X002102Y009103D03*
X002102Y008907D03*
X002102Y008710D03*
X002102Y008513D03*
X002102Y008316D03*
D22*
X002791Y007627D03*
X002988Y007627D03*
X003185Y007627D03*
X003382Y007627D03*
X003578Y007627D03*
X003775Y007627D03*
X003972Y007627D03*
X004169Y007627D03*
X004169Y010383D03*
X003972Y010383D03*
X003775Y010383D03*
X003578Y010383D03*
X003382Y010383D03*
X003185Y010383D03*
X002988Y010383D03*
X002791Y010383D03*
D23*
X000995Y004230D03*
X006165Y004230D03*
M02*
