%
M48
M72
T01C0.0236
T02C0.0360
T03C0.0394
T04C0.0910
%
T01
X2405Y4455
X3580Y4680
X4605Y3205
X7355Y4730
X7605Y5880
X6730Y7755
X7605Y8230
X7605Y8730
X6130Y9305
X5680Y9080
X5380Y7730
X4780Y7555
X4205Y8455
X4205Y9030
X3680Y9030
X3230Y9280
X2780Y9005
X3380Y6880
X2030Y12630
T02
X8580Y12730
X8580Y11730
X8580Y10730
X8580Y9730
X8580Y8730
X8580Y7730
X8580Y6730
X8580Y5730
X8580Y4730
X8580Y3730
X8580Y2730
X8580Y1730
X8580Y730
X9580Y730
X9580Y1730
X9580Y2730
X9580Y3730
X9580Y4730
X9580Y5730
X9580Y6730
X9580Y7730
X9580Y8730
X9580Y9730
X9580Y10730
X9580Y11730
X9580Y12730
X6980Y1730
X6980Y730
T03
X2714Y2349
X4446Y2349
T04
X6165Y4230
X995Y4230
M30
