G75*
G70*
%OFA0B0*%
%FSLAX24Y24*%
%IPPOS*%
%LPD*%
%AMOC8*
5,1,8,0,0,1.08239X$1,22.5*
%
%ADD10C,0.0000*%
%ADD11R,0.0500X0.0220*%
%ADD12R,0.0220X0.0500*%
%ADD13R,0.0551X0.0748*%
%ADD14R,0.0709X0.0630*%
%ADD15R,0.0630X0.0709*%
%ADD16R,0.0630X0.0710*%
%ADD17C,0.0560*%
%ADD18OC8,0.0560*%
%ADD19C,0.0560*%
%ADD20R,0.0250X0.0500*%
%ADD21R,0.0740X0.0740*%
%ADD22C,0.0740*%
%ADD23R,0.0787X0.0945*%
%ADD24R,0.0197X0.0909*%
%ADD25C,0.0220*%
%ADD26C,0.0396*%
%ADD27C,0.0240*%
%ADD28C,0.0200*%
%ADD29C,0.0160*%
%ADD30C,0.0100*%
D10*
X000180Y000180D02*
X000180Y013300D01*
X010322Y013300D01*
X010322Y000180D01*
X000180Y000180D01*
X002517Y002349D02*
X002519Y002376D01*
X002525Y002403D01*
X002534Y002429D01*
X002547Y002453D01*
X002563Y002476D01*
X002582Y002495D01*
X002604Y002512D01*
X002628Y002526D01*
X002653Y002536D01*
X002680Y002543D01*
X002707Y002546D01*
X002735Y002545D01*
X002762Y002540D01*
X002788Y002532D01*
X002812Y002520D01*
X002835Y002504D01*
X002856Y002486D01*
X002873Y002465D01*
X002888Y002441D01*
X002899Y002416D01*
X002907Y002390D01*
X002911Y002363D01*
X002911Y002335D01*
X002907Y002308D01*
X002899Y002282D01*
X002888Y002257D01*
X002873Y002233D01*
X002856Y002212D01*
X002835Y002194D01*
X002813Y002178D01*
X002788Y002166D01*
X002762Y002158D01*
X002735Y002153D01*
X002707Y002152D01*
X002680Y002155D01*
X002653Y002162D01*
X002628Y002172D01*
X002604Y002186D01*
X002582Y002203D01*
X002563Y002222D01*
X002547Y002245D01*
X002534Y002269D01*
X002525Y002295D01*
X002519Y002322D01*
X002517Y002349D01*
X004249Y002349D02*
X004251Y002376D01*
X004257Y002403D01*
X004266Y002429D01*
X004279Y002453D01*
X004295Y002476D01*
X004314Y002495D01*
X004336Y002512D01*
X004360Y002526D01*
X004385Y002536D01*
X004412Y002543D01*
X004439Y002546D01*
X004467Y002545D01*
X004494Y002540D01*
X004520Y002532D01*
X004544Y002520D01*
X004567Y002504D01*
X004588Y002486D01*
X004605Y002465D01*
X004620Y002441D01*
X004631Y002416D01*
X004639Y002390D01*
X004643Y002363D01*
X004643Y002335D01*
X004639Y002308D01*
X004631Y002282D01*
X004620Y002257D01*
X004605Y002233D01*
X004588Y002212D01*
X004567Y002194D01*
X004545Y002178D01*
X004520Y002166D01*
X004494Y002158D01*
X004467Y002153D01*
X004439Y002152D01*
X004412Y002155D01*
X004385Y002162D01*
X004360Y002172D01*
X004336Y002186D01*
X004314Y002203D01*
X004295Y002222D01*
X004279Y002245D01*
X004266Y002269D01*
X004257Y002295D01*
X004251Y002322D01*
X004249Y002349D01*
D11*
X004970Y007878D03*
X004970Y008193D03*
X004970Y008508D03*
X004970Y008823D03*
X004970Y009137D03*
X004970Y009452D03*
X004970Y009767D03*
X004970Y010082D03*
X001590Y010082D03*
X001590Y009767D03*
X001590Y009452D03*
X001590Y009137D03*
X001590Y008823D03*
X001590Y008508D03*
X001590Y008193D03*
X001590Y007878D03*
D12*
X002178Y007290D03*
X002493Y007290D03*
X002808Y007290D03*
X003123Y007290D03*
X003437Y007290D03*
X003752Y007290D03*
X004067Y007290D03*
X004382Y007290D03*
X004382Y010670D03*
X004067Y010670D03*
X003752Y010670D03*
X003437Y010670D03*
X003123Y010670D03*
X002808Y010670D03*
X002493Y010670D03*
X002178Y010670D03*
D13*
X006183Y010939D03*
X007127Y010939D03*
X007127Y012671D03*
X006183Y012671D03*
D14*
X006805Y009756D03*
X006805Y008654D03*
D15*
X005056Y012230D03*
X003954Y012230D03*
X002306Y012230D03*
X001204Y012230D03*
X006279Y003580D03*
X007381Y003580D03*
D16*
X005040Y005930D03*
X003920Y005930D03*
X002940Y005930D03*
X001820Y005930D03*
D17*
X008580Y000730D03*
D18*
X008580Y001730D03*
X008580Y002730D03*
X008580Y003730D03*
X008580Y004730D03*
X008580Y005730D03*
X008580Y006730D03*
X008580Y007730D03*
X008580Y008730D03*
X008580Y009730D03*
X008580Y010730D03*
X008580Y011730D03*
X008580Y012730D03*
X009580Y012730D03*
X009580Y011730D03*
X009580Y010730D03*
X009580Y009730D03*
X009580Y008730D03*
X009580Y007730D03*
X009580Y006730D03*
X009580Y005730D03*
X009580Y004730D03*
X009580Y003730D03*
X009580Y002730D03*
X009580Y001730D03*
X009580Y000730D03*
D19*
X007260Y000730D02*
X006700Y000730D01*
X006700Y001730D02*
X007260Y001730D01*
D20*
X006982Y005180D03*
X006628Y005180D03*
X006628Y006680D03*
X006982Y006680D03*
D21*
X004930Y004930D03*
D22*
X003930Y004930D03*
X002930Y004930D03*
X001930Y004930D03*
D23*
X001848Y003333D03*
X001848Y001168D03*
X005312Y001168D03*
X005312Y003333D03*
D24*
X004210Y003555D03*
X003895Y003555D03*
X003580Y003555D03*
X003265Y003555D03*
X002950Y003555D03*
D25*
X002480Y006580D02*
X002480Y007277D01*
X002493Y007290D01*
X002808Y007290D02*
X002808Y009558D01*
X002955Y009705D01*
X003330Y009305D02*
X003123Y009098D01*
X003123Y007290D01*
X003437Y007290D02*
X003437Y008637D01*
X003705Y008905D01*
X004080Y008505D02*
X003752Y008177D01*
X003752Y007290D01*
X004067Y007290D02*
X004067Y006967D01*
X003930Y006830D01*
X003180Y006830D01*
X003030Y006680D01*
X004230Y007980D02*
X004443Y008193D01*
X004970Y008193D01*
X004970Y008508D01*
X004970Y008823D02*
X005337Y008823D01*
X005580Y008580D01*
X006005Y008605D02*
X005473Y009137D01*
X004970Y009137D01*
X004970Y009452D02*
X004970Y009767D01*
X004980Y010082D02*
X004980Y010630D01*
X004067Y010670D02*
X004067Y011241D01*
X005056Y012230D01*
X003755Y011105D02*
X003380Y011480D01*
X002855Y011480D01*
X002306Y012029D01*
X003752Y011102D02*
X003752Y010670D01*
X003752Y011102D02*
X003755Y011105D01*
X001755Y009280D02*
X001733Y009280D01*
X001590Y009137D01*
X001590Y009452D01*
X001590Y008823D02*
X001590Y008508D01*
X004955Y007863D02*
X004955Y007380D01*
X004955Y007863D02*
X004970Y007878D01*
D26*
X004955Y007380D03*
X004230Y007980D03*
X004080Y008505D03*
X003705Y008905D03*
X003330Y009305D03*
X002955Y009705D03*
X003130Y012230D03*
X004980Y010630D03*
X006805Y007955D03*
X007555Y007805D03*
X006155Y006680D03*
X005680Y006380D03*
X007555Y005705D03*
X007505Y010055D03*
X003030Y006680D03*
X002480Y006580D03*
X000830Y010605D03*
D27*
X000830Y011856D01*
X001204Y012230D01*
X002306Y012230D02*
X002306Y012029D01*
X002306Y012230D02*
X002981Y012905D01*
X006180Y012905D01*
X006183Y012902D01*
X006183Y012671D01*
X006655Y011805D02*
X005481Y011805D01*
X005056Y012230D01*
X003954Y012230D02*
X003130Y012230D01*
X002655Y010105D02*
X003980Y010105D01*
X004455Y009630D01*
X004780Y009630D01*
X004980Y009630D02*
X005505Y009630D01*
X006530Y008605D01*
X006756Y008605D01*
X006805Y008654D01*
X006805Y007955D01*
X007555Y007805D02*
X007555Y006855D01*
X007380Y006680D01*
X006982Y006680D01*
X006628Y006680D02*
X006155Y006680D01*
X005680Y006380D02*
X006055Y006005D01*
X006055Y005430D01*
X006305Y005180D01*
X006628Y005180D01*
X006982Y005180D02*
X007380Y005180D01*
X007555Y005355D01*
X007555Y005705D01*
X006005Y007305D02*
X006005Y008605D01*
X005580Y008580D02*
X005580Y007405D01*
X004655Y006505D01*
X003430Y006505D01*
X003150Y006208D01*
X003030Y006080D01*
X003930Y006070D02*
X003930Y004930D01*
X003920Y005930D02*
X003930Y006070D01*
X004980Y006140D02*
X005040Y005930D01*
X004980Y006140D02*
X005005Y006305D01*
X006005Y007305D01*
X006805Y009756D02*
X007206Y009756D01*
X007505Y010055D01*
X007127Y010939D02*
X007127Y011333D01*
X006655Y011805D01*
X002655Y010105D02*
X002405Y009855D01*
X002405Y009430D01*
X002255Y009280D01*
X001755Y009280D01*
X001430Y008680D02*
X001590Y008520D01*
X001430Y008680D02*
X001055Y008680D01*
X000830Y008905D01*
X000830Y010605D01*
X001820Y005930D02*
X002940Y004940D01*
X002930Y004930D01*
X002940Y004930D01*
X001930Y004905D02*
X001930Y004930D01*
X006154Y003455D02*
X006279Y003580D01*
X006263Y003564D01*
X007381Y003580D02*
X007381Y002131D01*
X006980Y001730D01*
D28*
X006280Y003581D02*
X006279Y003580D01*
X006280Y003581D02*
X006280Y004280D01*
X005630Y004930D01*
X004930Y004930D01*
X004210Y004210D01*
X004210Y003555D01*
X003580Y003555D02*
X003580Y004580D01*
X003930Y004930D01*
X003265Y004595D02*
X002930Y004930D01*
X003265Y004595D02*
X003265Y003555D01*
X002950Y003555D02*
X002950Y004210D01*
X002830Y004330D01*
X002030Y004330D01*
X001930Y004430D01*
X001930Y004930D01*
D29*
X004970Y009452D02*
X004970Y009620D01*
X004980Y009630D01*
X004970Y009767D02*
X004833Y009630D01*
X004780Y009630D01*
D30*
X003150Y006208D02*
X003180Y006180D01*
X002940Y005930D01*
M02*
