G75*
G70*
%OFA0B0*%
%FSLAX24Y24*%
%IPPOS*%
%LPD*%
%AMOC8*
5,1,8,0,0,1.08239X$1,22.5*
%
%ADD10R,0.0748X0.0551*%
%ADD11R,0.0709X0.0630*%
%ADD12R,0.0630X0.0709*%
%ADD13R,0.0630X0.0710*%
%ADD14R,0.0787X0.0945*%
%ADD15R,0.0197X0.0909*%
%ADD16R,0.0450X0.0100*%
%ADD17R,0.0100X0.0450*%
D10*
X005364Y011133D03*
X005364Y012077D03*
X007096Y012077D03*
X007096Y011133D03*
D11*
X006730Y009956D03*
X006730Y008854D03*
X007355Y003931D03*
X007355Y002829D03*
D12*
X002156Y011805D03*
X003129Y012180D03*
X004231Y012180D03*
X001054Y011805D03*
D13*
X001970Y005480D03*
X003090Y005480D03*
X004070Y005480D03*
X005190Y005480D03*
D14*
X001848Y001168D03*
X001848Y003333D03*
X005312Y003333D03*
X005312Y001168D03*
D15*
X004210Y003555D03*
X003895Y003555D03*
X003580Y003555D03*
X003265Y003555D03*
X002950Y003555D03*
D16*
X002102Y008316D03*
X002102Y008513D03*
X002102Y008710D03*
X002102Y008907D03*
X002102Y009103D03*
X002102Y009300D03*
X002102Y009497D03*
X002102Y009694D03*
X004858Y009694D03*
X004858Y009497D03*
X004858Y009300D03*
X004858Y009103D03*
X004858Y008907D03*
X004858Y008710D03*
X004858Y008513D03*
X004858Y008316D03*
D17*
X004169Y007627D03*
X003972Y007627D03*
X003775Y007627D03*
X003578Y007627D03*
X003382Y007627D03*
X003185Y007627D03*
X002988Y007627D03*
X002791Y007627D03*
X002791Y010383D03*
X002988Y010383D03*
X003185Y010383D03*
X003382Y010383D03*
X003578Y010383D03*
X003775Y010383D03*
X003972Y010383D03*
X004169Y010383D03*
M02*
