G75*
G70*
%OFA0B0*%
%FSLAX24Y24*%
%IPPOS*%
%LPD*%
%AMOC8*
5,1,8,0,0,1.08239X$1,22.5*
%
%ADD10C,0.0030*%
%ADD11C,0.0060*%
%ADD12C,0.0080*%
%ADD13C,0.0143*%
%ADD14C,0.0050*%
%ADD15C,0.0100*%
D10*
X000395Y001895D02*
X000685Y001895D01*
X000540Y001895D02*
X000492Y001943D01*
X000492Y002040D01*
X000540Y002088D01*
X000685Y002088D01*
X000637Y002238D02*
X000685Y002286D01*
X000637Y002238D02*
X000443Y002238D01*
X000492Y002190D02*
X000492Y002286D01*
X000492Y002386D02*
X000492Y002483D01*
X000443Y002434D02*
X000637Y002434D01*
X000685Y002483D01*
X000685Y002583D02*
X000685Y002728D01*
X000637Y002776D01*
X000540Y002776D01*
X000492Y002728D01*
X000492Y002583D01*
X000782Y002583D01*
X000685Y002877D02*
X000637Y002877D01*
X000637Y002926D01*
X000685Y002926D01*
X000685Y002877D01*
X000540Y002877D02*
X000492Y002877D01*
X000492Y002926D01*
X000540Y002926D01*
X000540Y002877D01*
X000685Y003024D02*
X000395Y003218D01*
X000395Y003513D02*
X000685Y003319D01*
X000637Y005087D02*
X000492Y005087D01*
X000637Y005087D02*
X000685Y005135D01*
X000637Y005184D01*
X000685Y005232D01*
X000637Y005281D01*
X000492Y005281D01*
X000492Y005382D02*
X000492Y005430D01*
X000685Y005430D01*
X000685Y005382D02*
X000685Y005478D01*
X000685Y005578D02*
X000395Y005578D01*
X000395Y005430D02*
X000346Y005430D01*
X000588Y005578D02*
X000492Y005723D01*
X000492Y005824D02*
X000492Y005872D01*
X000685Y005872D01*
X000685Y005824D02*
X000685Y005920D01*
X000685Y006020D02*
X000685Y006068D01*
X000637Y006068D01*
X000637Y006020D01*
X000685Y006020D01*
X000637Y006167D02*
X000685Y006216D01*
X000685Y006361D01*
X000733Y006361D02*
X000782Y006313D01*
X000782Y006264D01*
X000875Y006263D02*
X000875Y006167D01*
X000923Y006118D01*
X001117Y006118D01*
X001165Y006167D01*
X001165Y006263D01*
X001117Y006312D01*
X001068Y006263D02*
X000972Y006263D01*
X000972Y006167D01*
X001068Y006167D01*
X001068Y006263D01*
X001020Y006312D01*
X000923Y006312D01*
X000875Y006263D01*
X000972Y006413D02*
X000972Y006510D01*
X000923Y006461D02*
X001117Y006461D01*
X001165Y006510D01*
X001117Y006609D02*
X001020Y006609D01*
X000972Y006658D01*
X000972Y006755D01*
X001020Y006803D01*
X001068Y006803D01*
X001068Y006609D01*
X001117Y006609D02*
X001165Y006658D01*
X001165Y006755D01*
X001117Y006904D02*
X001165Y006952D01*
X001165Y007098D01*
X000972Y007098D01*
X000972Y007199D02*
X001117Y007199D01*
X001165Y007247D01*
X001117Y007295D01*
X001165Y007344D01*
X001117Y007392D01*
X000972Y007392D01*
X001020Y007493D02*
X000972Y007542D01*
X000972Y007639D01*
X001020Y007687D01*
X001068Y007687D01*
X001068Y007493D01*
X001020Y007493D02*
X001117Y007493D01*
X001165Y007542D01*
X001165Y007639D01*
X001165Y007788D02*
X000972Y007788D01*
X000972Y007933D01*
X001020Y007982D01*
X001165Y007982D01*
X001165Y008083D02*
X001117Y008083D01*
X001117Y008131D01*
X001165Y008131D01*
X001165Y008083D01*
X001117Y008230D02*
X001165Y008278D01*
X001165Y008375D01*
X001117Y008424D01*
X001020Y008424D01*
X000972Y008375D01*
X000972Y008278D01*
X001020Y008230D01*
X001117Y008230D01*
X001165Y008525D02*
X000972Y008525D01*
X001068Y008525D02*
X000972Y008621D01*
X000972Y008670D01*
X001020Y008770D02*
X001117Y008770D01*
X001165Y008819D01*
X001165Y008964D01*
X001213Y008964D02*
X000972Y008964D01*
X000972Y008819D01*
X001020Y008770D01*
X001213Y008964D02*
X001262Y008915D01*
X001262Y008867D01*
X000685Y008915D02*
X000588Y008770D01*
X000492Y008915D01*
X000492Y009016D02*
X000492Y009064D01*
X000685Y009064D01*
X000685Y009016D02*
X000685Y009112D01*
X000685Y009212D02*
X000395Y009406D01*
X000395Y009507D02*
X000395Y009652D01*
X000443Y009700D01*
X000540Y009700D01*
X000588Y009652D01*
X000588Y009507D01*
X000588Y009604D02*
X000685Y009700D01*
X000637Y009801D02*
X000588Y009850D01*
X000588Y009995D01*
X000540Y009995D02*
X000685Y009995D01*
X000685Y009850D01*
X000637Y009801D01*
X000492Y009850D02*
X000492Y009947D01*
X000540Y009995D01*
X000540Y010096D02*
X000492Y010145D01*
X000492Y010290D01*
X000492Y010391D02*
X000492Y010536D01*
X000540Y010584D01*
X000637Y010584D01*
X000685Y010536D01*
X000685Y010391D01*
X000782Y010391D02*
X000492Y010391D01*
X000637Y010290D02*
X000588Y010241D01*
X000588Y010145D01*
X000540Y010096D01*
X000685Y010096D02*
X000685Y010241D01*
X000637Y010290D01*
X000637Y010685D02*
X000540Y010685D01*
X000492Y010734D01*
X000492Y010879D01*
X000395Y010879D02*
X000685Y010879D01*
X000685Y010734D01*
X000637Y010685D01*
X000637Y010980D02*
X000588Y011028D01*
X000588Y011174D01*
X000540Y011174D02*
X000685Y011174D01*
X000685Y011028D01*
X000637Y010980D01*
X000492Y011028D02*
X000492Y011125D01*
X000540Y011174D01*
X000492Y011275D02*
X000492Y011420D01*
X000540Y011468D01*
X000685Y011468D01*
X000637Y011569D02*
X000685Y011618D01*
X000685Y011763D01*
X000637Y011864D02*
X000540Y011864D01*
X000492Y011912D01*
X000492Y012009D01*
X000540Y012058D01*
X000588Y012058D01*
X000588Y011864D01*
X000637Y011864D02*
X000685Y011912D01*
X000685Y012009D01*
X000685Y012159D02*
X000492Y012159D01*
X000588Y012159D02*
X000492Y012255D01*
X000492Y012304D01*
X000492Y011763D02*
X000492Y011618D01*
X000540Y011569D01*
X000637Y011569D01*
X000685Y011275D02*
X000492Y011275D01*
X001116Y011168D02*
X001213Y011265D01*
X001213Y010975D01*
X001116Y010975D02*
X001310Y010975D01*
X001411Y011023D02*
X001411Y011072D01*
X001459Y011120D01*
X001556Y011120D01*
X001605Y011072D01*
X001605Y011023D01*
X001556Y010975D01*
X001459Y010975D01*
X001411Y011023D01*
X001459Y011120D02*
X001411Y011168D01*
X001411Y011217D01*
X001459Y011265D01*
X001556Y011265D01*
X001605Y011217D01*
X001605Y011168D01*
X001556Y011120D01*
X001706Y011168D02*
X001706Y010878D01*
X001706Y010975D02*
X001851Y010975D01*
X001899Y011023D01*
X001899Y011120D01*
X001851Y011168D01*
X001706Y011168D01*
X002000Y011120D02*
X002097Y011120D01*
X002000Y010975D02*
X002000Y011265D01*
X002194Y011265D01*
X001645Y012300D02*
X001645Y012590D01*
X001500Y012445D01*
X001694Y012445D01*
X001399Y012348D02*
X001351Y012300D01*
X001254Y012300D01*
X001206Y012348D01*
X001206Y012542D01*
X001254Y012590D01*
X001351Y012590D01*
X001399Y012542D01*
X003070Y011612D02*
X003070Y011418D01*
X003118Y011370D01*
X003215Y011370D01*
X003263Y011418D01*
X003365Y011418D02*
X003413Y011370D01*
X003510Y011370D01*
X003558Y011418D01*
X003558Y011467D01*
X003510Y011515D01*
X003461Y011515D01*
X003510Y011515D02*
X003558Y011563D01*
X003558Y011612D01*
X003510Y011660D01*
X003413Y011660D01*
X003365Y011612D01*
X003263Y011612D02*
X003215Y011660D01*
X003118Y011660D01*
X003070Y011612D01*
X003795Y011563D02*
X003892Y011660D01*
X003892Y011370D01*
X003988Y011370D02*
X003795Y011370D01*
X004090Y011418D02*
X004090Y011467D01*
X004138Y011515D01*
X004235Y011515D01*
X004283Y011467D01*
X004283Y011418D01*
X004235Y011370D01*
X004138Y011370D01*
X004090Y011418D01*
X004138Y011515D02*
X004090Y011563D01*
X004090Y011612D01*
X004138Y011660D01*
X004235Y011660D01*
X004283Y011612D01*
X004283Y011563D01*
X004235Y011515D01*
X004384Y011563D02*
X004529Y011563D01*
X004578Y011515D01*
X004578Y011418D01*
X004529Y011370D01*
X004384Y011370D01*
X004384Y011273D02*
X004384Y011563D01*
X004679Y011515D02*
X004776Y011515D01*
X004872Y011660D02*
X004679Y011660D01*
X004679Y011370D01*
X005973Y009683D02*
X005925Y009635D01*
X005925Y009538D01*
X005973Y009490D01*
X005973Y009388D02*
X005925Y009340D01*
X005925Y009243D01*
X005973Y009195D01*
X006167Y009195D01*
X006215Y009243D01*
X006215Y009340D01*
X006167Y009388D01*
X006215Y009490D02*
X006022Y009683D01*
X005973Y009683D01*
X006215Y009683D02*
X006215Y009490D01*
X007354Y010597D02*
X007257Y010693D01*
X007548Y010693D01*
X007548Y010597D02*
X007548Y010790D01*
X007548Y010891D02*
X007354Y011085D01*
X007306Y011085D01*
X007257Y011037D01*
X007257Y010940D01*
X007306Y010891D01*
X007548Y010891D02*
X007548Y011085D01*
X007548Y011186D02*
X007257Y011186D01*
X007354Y011283D01*
X007257Y011380D01*
X007548Y011380D01*
X007548Y011481D02*
X007257Y011481D01*
X007354Y011529D02*
X007354Y011626D01*
X007402Y011674D01*
X007548Y011674D01*
X007548Y011775D02*
X007548Y011969D01*
X007354Y011969D02*
X007548Y011775D01*
X007354Y011775D02*
X007354Y011969D01*
X007354Y011529D02*
X007402Y011481D01*
X007400Y009992D02*
X007400Y009799D01*
X007690Y009799D01*
X007690Y009697D02*
X007545Y009697D01*
X007497Y009649D01*
X007497Y009504D01*
X007690Y009504D01*
X007642Y009403D02*
X007690Y009354D01*
X007690Y009258D01*
X007642Y009209D01*
X007448Y009403D01*
X007642Y009403D01*
X007642Y009209D02*
X007448Y009209D01*
X007400Y009258D01*
X007400Y009354D01*
X007448Y009403D01*
X007448Y009108D02*
X007642Y008915D01*
X007690Y008963D01*
X007690Y009060D01*
X007642Y009108D01*
X007448Y009108D01*
X007400Y009060D01*
X007400Y008963D01*
X007448Y008915D01*
X007642Y008915D01*
X007690Y008813D02*
X007690Y008620D01*
X007690Y008717D02*
X007400Y008717D01*
X007497Y008620D01*
X007318Y007628D02*
X007071Y007628D01*
X006950Y007628D02*
X006950Y007258D01*
X006703Y007628D01*
X006703Y007258D01*
X006581Y007258D02*
X006458Y007258D01*
X006519Y007258D02*
X006519Y007628D01*
X006458Y007628D02*
X006581Y007628D01*
X007195Y007628D02*
X007195Y007258D01*
X007119Y006140D02*
X007366Y005770D01*
X007119Y005770D02*
X007366Y006140D01*
X006998Y006079D02*
X006998Y005955D01*
X006936Y005893D01*
X006751Y005893D01*
X006751Y005770D02*
X006751Y006140D01*
X006936Y006140D01*
X006998Y006079D01*
X006629Y006079D02*
X006568Y006140D01*
X006444Y006140D01*
X006383Y006079D01*
X006383Y005832D01*
X006444Y005770D01*
X006568Y005770D01*
X006629Y005832D01*
X006629Y005955D01*
X006506Y005955D01*
X005169Y005929D02*
X005169Y005881D01*
X005120Y005833D01*
X005169Y005784D01*
X005169Y005736D01*
X005120Y005688D01*
X005024Y005688D01*
X004975Y005736D01*
X004874Y005736D02*
X004826Y005688D01*
X004729Y005688D01*
X004681Y005736D01*
X004777Y005833D02*
X004826Y005833D01*
X004874Y005784D01*
X004874Y005736D01*
X004826Y005833D02*
X004874Y005881D01*
X004874Y005929D01*
X004826Y005978D01*
X004729Y005978D01*
X004681Y005929D01*
X004419Y005688D02*
X004225Y005688D01*
X004322Y005688D02*
X004322Y005978D01*
X004225Y005881D01*
X004124Y005929D02*
X004124Y005833D01*
X004076Y005784D01*
X003931Y005784D01*
X004027Y005784D02*
X004124Y005688D01*
X003931Y005688D02*
X003931Y005978D01*
X004076Y005978D01*
X004124Y005929D01*
X004975Y005929D02*
X005024Y005978D01*
X005120Y005978D01*
X005169Y005929D01*
X005120Y005833D02*
X005072Y005833D01*
X003069Y005868D02*
X003020Y005820D01*
X003069Y005772D01*
X003069Y005723D01*
X003020Y005675D01*
X002924Y005675D01*
X002875Y005723D01*
X002774Y005723D02*
X002726Y005675D01*
X002629Y005675D01*
X002581Y005723D01*
X002677Y005820D02*
X002726Y005820D01*
X002774Y005772D01*
X002774Y005723D01*
X002726Y005820D02*
X002774Y005868D01*
X002774Y005917D01*
X002726Y005965D01*
X002629Y005965D01*
X002581Y005917D01*
X002294Y005917D02*
X002245Y005965D01*
X002149Y005965D01*
X002100Y005917D01*
X001999Y005917D02*
X001999Y005820D01*
X001951Y005772D01*
X001806Y005772D01*
X001902Y005772D02*
X001999Y005675D01*
X002100Y005675D02*
X002294Y005868D01*
X002294Y005917D01*
X002294Y005675D02*
X002100Y005675D01*
X001999Y005917D02*
X001951Y005965D01*
X001806Y005965D01*
X001806Y005675D01*
X001262Y005136D02*
X000972Y005136D01*
X000972Y005281D01*
X001020Y005330D01*
X001117Y005330D01*
X001165Y005281D01*
X001165Y005136D01*
X001165Y005431D02*
X000875Y005431D01*
X000972Y005479D02*
X000972Y005576D01*
X001020Y005624D01*
X001165Y005624D01*
X001165Y005725D02*
X001165Y005822D01*
X001165Y005774D02*
X000972Y005774D01*
X000972Y005725D01*
X000875Y005774D02*
X000826Y005774D01*
X000685Y005723D02*
X000588Y005578D01*
X000395Y005872D02*
X000346Y005872D01*
X000492Y006167D02*
X000637Y006167D01*
X000733Y006361D02*
X000492Y006361D01*
X000540Y006462D02*
X000492Y006510D01*
X000492Y006607D01*
X000540Y006656D01*
X000637Y006656D01*
X000685Y006607D01*
X000685Y006510D01*
X000637Y006462D01*
X000540Y006462D01*
X000492Y006757D02*
X000492Y006902D01*
X000540Y006950D01*
X000637Y006950D01*
X000685Y006902D01*
X000685Y006757D01*
X000395Y006757D01*
X000492Y007051D02*
X000492Y007100D01*
X000685Y007100D01*
X000685Y007148D02*
X000685Y007051D01*
X000685Y007248D02*
X000685Y007296D01*
X000637Y007296D01*
X000637Y007248D01*
X000685Y007248D01*
X000685Y007395D02*
X000685Y007540D01*
X000637Y007589D01*
X000540Y007589D01*
X000492Y007540D01*
X000492Y007395D01*
X000395Y007395D02*
X000685Y007395D01*
X000637Y007690D02*
X000540Y007690D01*
X000492Y007738D01*
X000492Y007835D01*
X000540Y007883D01*
X000588Y007883D01*
X000588Y007690D01*
X000637Y007690D02*
X000685Y007738D01*
X000685Y007835D01*
X000685Y007984D02*
X000395Y008178D01*
X000492Y008279D02*
X000637Y008279D01*
X000685Y008327D01*
X000637Y008376D01*
X000685Y008424D01*
X000637Y008473D01*
X000492Y008473D01*
X000492Y008574D02*
X000492Y008622D01*
X000685Y008622D01*
X000685Y008574D02*
X000685Y008671D01*
X000685Y008770D02*
X000395Y008770D01*
X000395Y008622D02*
X000346Y008622D01*
X000346Y009064D02*
X000395Y009064D01*
X000395Y009507D02*
X000685Y009507D01*
X002165Y007838D02*
X002165Y007644D01*
X002455Y007644D01*
X002455Y007543D02*
X002262Y007543D01*
X002310Y007644D02*
X002310Y007741D01*
X002455Y007543D02*
X002455Y007398D01*
X002407Y007349D01*
X002262Y007349D01*
X002165Y007152D02*
X002455Y007152D01*
X002455Y007248D02*
X002455Y007055D01*
X002468Y006863D02*
X002468Y006669D01*
X002468Y006766D02*
X002178Y006766D01*
X002274Y006669D01*
X002226Y006568D02*
X002178Y006520D01*
X002178Y006423D01*
X002226Y006374D01*
X002419Y006374D01*
X002468Y006423D01*
X002468Y006520D01*
X002419Y006568D01*
X002262Y007055D02*
X002165Y007152D01*
X002924Y005965D02*
X003020Y005965D01*
X003069Y005917D01*
X003069Y005868D01*
X003020Y005820D02*
X002972Y005820D01*
X002875Y005917D02*
X002924Y005965D01*
X001165Y005970D02*
X000875Y005970D01*
X000875Y005922D01*
X001165Y005922D02*
X001165Y006019D01*
X000972Y005479D02*
X001020Y005431D01*
X000972Y006904D02*
X001117Y006904D01*
X000395Y007100D02*
X000346Y007100D01*
X005910Y002474D02*
X005910Y002308D01*
X006240Y002308D01*
X006240Y002474D01*
X006185Y002529D01*
X006130Y002529D01*
X006075Y002474D01*
X006075Y002308D01*
X006130Y002197D02*
X006185Y002197D01*
X006240Y002142D01*
X006240Y002032D01*
X006185Y001977D01*
X006185Y001866D02*
X005910Y001866D01*
X005965Y001977D02*
X006020Y001977D01*
X006075Y002032D01*
X006075Y002142D01*
X006130Y002197D01*
X005965Y002197D02*
X005910Y002142D01*
X005910Y002032D01*
X005965Y001977D01*
X006185Y001866D02*
X006240Y001811D01*
X006240Y001701D01*
X006185Y001645D01*
X005910Y001645D01*
X006075Y001534D02*
X006020Y001479D01*
X006020Y001369D01*
X006075Y001314D01*
X006185Y001314D01*
X006240Y001369D01*
X006240Y001479D01*
X006185Y001534D01*
X006075Y001534D01*
X006075Y001203D02*
X005965Y001203D01*
X005910Y001148D01*
X005910Y000983D01*
X006240Y000983D01*
X006130Y000983D02*
X006130Y001148D01*
X006075Y001203D01*
X006075Y002474D02*
X006020Y002529D01*
X005965Y002529D01*
X005910Y002474D01*
X007545Y009799D02*
X007545Y009895D01*
D11*
X007880Y007530D02*
X007882Y007496D01*
X007888Y007463D01*
X007897Y007431D01*
X007910Y007400D01*
X007926Y007370D01*
X007945Y007343D01*
X007968Y007318D01*
X007993Y007295D01*
X008020Y007276D01*
X008050Y007260D01*
X008081Y007247D01*
X008113Y007238D01*
X008146Y007232D01*
X008180Y007230D01*
X009980Y007230D01*
X010014Y007232D01*
X010047Y007238D01*
X010079Y007247D01*
X010110Y007260D01*
X010140Y007276D01*
X010167Y007295D01*
X010192Y007318D01*
X010215Y007343D01*
X010234Y007370D01*
X010250Y007400D01*
X010263Y007431D01*
X010272Y007463D01*
X010278Y007496D01*
X010280Y007530D01*
X007255Y002780D02*
X006455Y002780D01*
X006355Y002680D01*
X006355Y001880D01*
X006455Y001780D01*
X006355Y001680D01*
X006355Y000880D01*
X006455Y000780D01*
X007255Y000780D01*
X007355Y000880D01*
X007355Y001680D01*
X007255Y001780D01*
X007355Y001880D01*
X007355Y002680D01*
X007255Y002780D01*
X007880Y000480D02*
X007880Y012980D01*
X007882Y013010D01*
X007887Y013040D01*
X007896Y013069D01*
X007909Y013096D01*
X007924Y013122D01*
X007943Y013146D01*
X007964Y013167D01*
X007988Y013186D01*
X008014Y013201D01*
X008041Y013214D01*
X008070Y013223D01*
X008100Y013228D01*
X008130Y013230D01*
X010030Y013230D01*
X010060Y013228D01*
X010090Y013223D01*
X010119Y013214D01*
X010146Y013201D01*
X010172Y013186D01*
X010196Y013167D01*
X010217Y013146D01*
X010236Y013122D01*
X010251Y013096D01*
X010264Y013069D01*
X010273Y013040D01*
X010278Y013010D01*
X010280Y012980D01*
X010280Y000480D01*
X010278Y000450D01*
X010273Y000420D01*
X010264Y000391D01*
X010251Y000364D01*
X010236Y000338D01*
X010217Y000314D01*
X010196Y000293D01*
X010172Y000274D01*
X010146Y000259D01*
X010119Y000246D01*
X010090Y000237D01*
X010060Y000232D01*
X010030Y000230D01*
X008130Y000230D01*
X008100Y000232D01*
X008070Y000237D01*
X008041Y000246D01*
X008014Y000259D01*
X007988Y000274D01*
X007964Y000293D01*
X007943Y000314D01*
X007924Y000338D01*
X007909Y000364D01*
X007896Y000391D01*
X007887Y000420D01*
X007882Y000450D01*
X007880Y000480D01*
D12*
X007182Y004874D02*
X006553Y004874D01*
X006552Y004874D02*
X006536Y004879D01*
X006520Y004887D01*
X006506Y004897D01*
X006494Y004909D01*
X006484Y004924D01*
X006477Y004940D01*
X006473Y004957D01*
X006472Y004974D01*
X006474Y004992D01*
X006474Y005543D02*
X006472Y005561D01*
X006473Y005578D01*
X006477Y005595D01*
X006484Y005611D01*
X006494Y005626D01*
X006506Y005638D01*
X006520Y005648D01*
X006536Y005656D01*
X006552Y005661D01*
X006553Y005661D02*
X007182Y005661D01*
X007183Y005661D02*
X007199Y005656D01*
X007215Y005648D01*
X007229Y005638D01*
X007241Y005626D01*
X007251Y005611D01*
X007258Y005595D01*
X007262Y005578D01*
X007263Y005561D01*
X007261Y005543D01*
X007261Y004992D02*
X007263Y004974D01*
X007262Y004957D01*
X007258Y004940D01*
X007251Y004924D01*
X007241Y004909D01*
X007229Y004897D01*
X007215Y004887D01*
X007199Y004879D01*
X007183Y004874D01*
X007182Y006361D02*
X006553Y006361D01*
X006552Y006362D02*
X006536Y006367D01*
X006520Y006375D01*
X006506Y006385D01*
X006494Y006397D01*
X006484Y006412D01*
X006477Y006428D01*
X006473Y006445D01*
X006472Y006462D01*
X006474Y006480D01*
X006474Y007030D02*
X006472Y007048D01*
X006473Y007065D01*
X006477Y007082D01*
X006484Y007098D01*
X006494Y007113D01*
X006506Y007125D01*
X006520Y007135D01*
X006536Y007143D01*
X006552Y007148D01*
X006553Y007149D02*
X007182Y007149D01*
X007183Y007148D02*
X007199Y007143D01*
X007215Y007135D01*
X007229Y007125D01*
X007241Y007113D01*
X007251Y007098D01*
X007258Y007082D01*
X007262Y007065D01*
X007263Y007048D01*
X007261Y007030D01*
X007261Y006480D02*
X007263Y006462D01*
X007262Y006445D01*
X007258Y006428D01*
X007251Y006412D01*
X007241Y006397D01*
X007229Y006385D01*
X007215Y006375D01*
X007199Y006367D01*
X007183Y006362D01*
X006411Y010313D02*
X006174Y010313D01*
X005643Y011042D02*
X005643Y011868D01*
X006174Y012597D02*
X006411Y012597D01*
X006942Y011868D02*
X006942Y011042D01*
D13*
X006371Y010648D03*
D14*
X005115Y003766D02*
X002045Y003766D01*
X002320Y003766D02*
X002753Y003766D01*
X002045Y002782D02*
X002045Y001719D01*
X002045Y000144D02*
X005115Y000144D01*
X005115Y001719D02*
X005115Y002782D01*
X004840Y003766D02*
X004407Y003766D01*
X008180Y000730D02*
X008182Y000770D01*
X008188Y000809D01*
X008198Y000848D01*
X008211Y000885D01*
X008229Y000921D01*
X008250Y000955D01*
X008274Y000987D01*
X008301Y001016D01*
X008331Y001043D01*
X008363Y001066D01*
X008398Y001086D01*
X008434Y001102D01*
X008472Y001115D01*
X008511Y001124D01*
X008550Y001129D01*
X008590Y001130D01*
X008630Y001127D01*
X008669Y001120D01*
X008707Y001109D01*
X008745Y001095D01*
X008780Y001076D01*
X008813Y001055D01*
X008845Y001030D01*
X008873Y001002D01*
X008899Y000972D01*
X008921Y000939D01*
X008940Y000904D01*
X008956Y000867D01*
X008968Y000829D01*
X008976Y000790D01*
X008980Y000750D01*
X008980Y000710D01*
X008976Y000670D01*
X008968Y000631D01*
X008956Y000593D01*
X008940Y000556D01*
X008921Y000521D01*
X008899Y000488D01*
X008873Y000458D01*
X008845Y000430D01*
X008813Y000405D01*
X008780Y000384D01*
X008745Y000365D01*
X008707Y000351D01*
X008669Y000340D01*
X008630Y000333D01*
X008590Y000330D01*
X008550Y000331D01*
X008511Y000336D01*
X008472Y000345D01*
X008434Y000358D01*
X008398Y000374D01*
X008363Y000394D01*
X008331Y000417D01*
X008301Y000444D01*
X008274Y000473D01*
X008250Y000505D01*
X008229Y000539D01*
X008211Y000575D01*
X008198Y000612D01*
X008188Y000651D01*
X008182Y000690D01*
X008180Y000730D01*
D15*
X004464Y008021D02*
X002496Y008021D01*
X002496Y009989D01*
X004464Y009989D01*
X004464Y008021D01*
X002692Y009596D02*
X002694Y009623D01*
X002700Y009650D01*
X002709Y009676D01*
X002722Y009700D01*
X002738Y009723D01*
X002757Y009742D01*
X002779Y009759D01*
X002803Y009773D01*
X002828Y009783D01*
X002855Y009790D01*
X002882Y009793D01*
X002910Y009792D01*
X002937Y009787D01*
X002963Y009779D01*
X002987Y009767D01*
X003010Y009751D01*
X003031Y009733D01*
X003048Y009712D01*
X003063Y009688D01*
X003074Y009663D01*
X003082Y009637D01*
X003086Y009610D01*
X003086Y009582D01*
X003082Y009555D01*
X003074Y009529D01*
X003063Y009504D01*
X003048Y009480D01*
X003031Y009459D01*
X003010Y009441D01*
X002988Y009425D01*
X002963Y009413D01*
X002937Y009405D01*
X002910Y009400D01*
X002882Y009399D01*
X002855Y009402D01*
X002828Y009409D01*
X002803Y009419D01*
X002779Y009433D01*
X002757Y009450D01*
X002738Y009469D01*
X002722Y009492D01*
X002709Y009516D01*
X002700Y009542D01*
X002694Y009569D01*
X002692Y009596D01*
M02*
