G75*
G70*
%OFA0B0*%
%FSLAX24Y24*%
%IPPOS*%
%LPD*%
%AMOC8*
5,1,8,0,0,1.08239X$1,22.5*
%
%ADD10C,0.0030*%
%ADD11C,0.0560*%
%ADD12OC8,0.0560*%
%ADD13C,0.0560*%
%ADD14R,0.0354X0.1181*%
%ADD15C,0.1310*%
%ADD16C,0.0160*%
%ADD17C,0.0396*%
%ADD18C,0.0200*%
%ADD19C,0.0100*%
%ADD20C,0.0140*%
%ADD21C,0.0120*%
D10*
X001020Y007170D02*
X001020Y007315D01*
X001068Y007363D01*
X001165Y007363D01*
X001213Y007315D01*
X001213Y007170D01*
X001310Y007170D02*
X001020Y007170D01*
X001068Y007465D02*
X001020Y007513D01*
X001020Y007658D01*
X000972Y007658D02*
X000923Y007610D01*
X000923Y007561D01*
X000972Y007658D02*
X001213Y007658D01*
X001213Y007465D02*
X001068Y007465D01*
X001500Y007513D02*
X001548Y007465D01*
X001597Y007513D01*
X001597Y007658D01*
X001645Y007658D02*
X001500Y007658D01*
X001500Y007513D01*
X001500Y007363D02*
X001597Y007267D01*
X001597Y007315D02*
X001597Y007170D01*
X001500Y007170D02*
X001790Y007170D01*
X001790Y007315D01*
X001742Y007363D01*
X001645Y007363D01*
X001597Y007315D01*
X001693Y007513D02*
X001693Y007610D01*
X001645Y007658D01*
X001645Y007759D02*
X001693Y007808D01*
X001693Y007953D01*
X001693Y008054D02*
X001693Y008199D01*
X001645Y008247D01*
X001548Y008247D01*
X001500Y008199D01*
X001500Y008054D01*
X001403Y008054D02*
X001693Y008054D01*
X001548Y007953D02*
X001597Y007904D01*
X001597Y007808D01*
X001645Y007759D01*
X001500Y007759D02*
X001500Y007904D01*
X001548Y007953D01*
X001310Y008151D02*
X001310Y008247D01*
X001310Y008199D02*
X001068Y008199D01*
X001020Y008151D01*
X001020Y008102D01*
X001068Y008054D01*
X001068Y008349D02*
X001020Y008397D01*
X001020Y008494D01*
X001068Y008542D01*
X001020Y008643D02*
X001310Y008643D01*
X001020Y008837D01*
X001310Y008837D01*
X001500Y008837D02*
X001500Y008692D01*
X001548Y008643D01*
X001597Y008692D01*
X001597Y008837D01*
X001645Y008837D02*
X001500Y008837D01*
X001500Y008938D02*
X001693Y008938D01*
X001693Y009083D01*
X001645Y009131D01*
X001500Y009131D01*
X001548Y009233D02*
X001500Y009281D01*
X001500Y009426D01*
X001548Y009527D02*
X001645Y009527D01*
X001693Y009576D01*
X001693Y009672D01*
X001645Y009721D01*
X001597Y009721D01*
X001597Y009527D01*
X001548Y009527D02*
X001500Y009576D01*
X001500Y009672D01*
X001500Y009822D02*
X001693Y009822D01*
X001597Y009822D02*
X001693Y009919D01*
X001693Y009967D01*
X001742Y010067D02*
X001790Y010116D01*
X001790Y010213D01*
X001742Y010261D01*
X001693Y010261D01*
X001500Y010067D01*
X001500Y010261D01*
X001500Y010362D02*
X001500Y010556D01*
X001500Y010459D02*
X001790Y010459D01*
X001693Y010362D01*
X001310Y010015D02*
X001020Y010015D01*
X001020Y009870D01*
X001068Y009822D01*
X001165Y009822D01*
X001213Y009870D01*
X001213Y010015D01*
X001165Y010117D02*
X001068Y010117D01*
X001020Y010165D01*
X001020Y010262D01*
X001068Y010310D01*
X001165Y010310D01*
X001213Y010262D01*
X001213Y010165D01*
X001165Y010117D01*
X001165Y010411D02*
X001068Y010411D01*
X001020Y010460D01*
X001020Y010556D01*
X001117Y010605D02*
X001117Y010411D01*
X001165Y010411D02*
X001213Y010460D01*
X001213Y010556D01*
X001165Y010605D01*
X001117Y010605D01*
X001165Y010706D02*
X001068Y010706D01*
X001020Y010754D01*
X001020Y010899D01*
X000972Y010899D02*
X001213Y010899D01*
X001213Y010754D01*
X001165Y010706D01*
X000972Y010899D02*
X000923Y010851D01*
X000923Y010803D01*
X001068Y011000D02*
X001020Y011049D01*
X001020Y011146D01*
X001068Y011194D01*
X001165Y011194D01*
X001213Y011146D01*
X001213Y011049D01*
X001165Y011000D01*
X001068Y011000D01*
X001020Y011295D02*
X001213Y011489D01*
X001020Y011489D02*
X001213Y011295D01*
X001500Y011343D02*
X001790Y011343D01*
X001693Y011246D01*
X001597Y011145D02*
X001790Y011145D01*
X001790Y010951D02*
X001597Y010951D01*
X001500Y011048D01*
X001597Y011145D01*
X001500Y011246D02*
X001500Y011440D01*
X001500Y011541D02*
X001500Y011589D01*
X001548Y011589D01*
X001548Y011541D01*
X001500Y011541D01*
X001548Y011688D02*
X001742Y011881D01*
X001548Y011881D01*
X001500Y011833D01*
X001500Y011736D01*
X001548Y011688D01*
X001742Y011688D01*
X001790Y011736D01*
X001790Y011833D01*
X001742Y011881D01*
X001693Y009426D02*
X001693Y009281D01*
X001645Y009233D01*
X001548Y009233D01*
X001310Y009281D02*
X001262Y009233D01*
X001213Y009233D01*
X001020Y009426D01*
X001020Y009329D02*
X001020Y009281D01*
X001068Y009233D01*
X001117Y009233D01*
X001213Y009329D01*
X001262Y009329D01*
X001310Y009281D01*
X001117Y009426D02*
X001020Y009329D01*
X001645Y008837D02*
X001693Y008788D01*
X001693Y008692D01*
X001693Y008542D02*
X001693Y008397D01*
X001645Y008349D01*
X001548Y008349D01*
X001500Y008397D01*
X001500Y008542D01*
X001790Y008542D01*
X001310Y008494D02*
X001310Y008397D01*
X001262Y008349D01*
X001068Y008349D01*
X001262Y008542D02*
X001310Y008494D01*
D11*
X008580Y000730D03*
D12*
X008580Y001730D03*
X008580Y002730D03*
X008580Y003730D03*
X008580Y004730D03*
X008580Y005730D03*
X008580Y006730D03*
X008580Y007730D03*
X008580Y008730D03*
X008580Y009730D03*
X008580Y010730D03*
X008580Y011730D03*
X008580Y012730D03*
X009580Y012730D03*
X009580Y011730D03*
X009580Y010730D03*
X009580Y009730D03*
X009580Y008730D03*
X009580Y007730D03*
X009580Y006730D03*
X009580Y005730D03*
X009580Y004730D03*
X009580Y003730D03*
X009580Y002730D03*
X009580Y001730D03*
X009580Y000730D03*
D13*
X007135Y001280D02*
X006575Y001280D01*
X006575Y002280D02*
X007135Y002280D01*
D14*
X004761Y005588D03*
X003974Y005588D03*
X003186Y005588D03*
X002399Y005588D03*
D15*
X000995Y004230D03*
X006165Y004230D03*
D16*
X000460Y003556D02*
X000460Y000460D01*
X008172Y000460D01*
X008100Y000635D01*
X008100Y000825D01*
X008143Y000930D01*
X007464Y000930D01*
X007407Y000873D01*
X007230Y000800D01*
X006480Y000800D01*
X006303Y000873D01*
X006168Y001008D01*
X006095Y001185D01*
X006095Y001375D01*
X006168Y001552D01*
X006303Y001687D01*
X006480Y001760D01*
X007230Y001760D01*
X007407Y001687D01*
X007542Y001552D01*
X007551Y001530D01*
X008101Y001530D01*
X008100Y001531D01*
X008100Y001929D01*
X008381Y002210D01*
X008779Y002210D01*
X009060Y001929D01*
X009060Y001531D01*
X009059Y001530D01*
X009101Y001530D01*
X009100Y001531D01*
X009100Y001929D01*
X009381Y002210D01*
X009779Y002210D01*
X010042Y001947D01*
X010042Y003513D01*
X009779Y003250D01*
X009381Y003250D01*
X009100Y003531D01*
X009100Y003929D01*
X009381Y004210D01*
X009779Y004210D01*
X010042Y003947D01*
X010042Y004513D01*
X009779Y004250D01*
X009381Y004250D01*
X009100Y004531D01*
X009100Y004929D01*
X009381Y005210D01*
X009779Y005210D01*
X010042Y004947D01*
X010042Y005513D01*
X009779Y005250D01*
X009381Y005250D01*
X009100Y005531D01*
X009100Y005929D01*
X009381Y006210D01*
X009779Y006210D01*
X010042Y005947D01*
X010042Y007513D01*
X009779Y007250D01*
X009496Y007250D01*
X009436Y007190D01*
X009570Y007190D01*
X009570Y006740D01*
X009590Y006740D01*
X009590Y007190D01*
X009771Y007190D01*
X010040Y006921D01*
X010040Y006740D01*
X009590Y006740D01*
X009590Y006720D01*
X010040Y006720D01*
X010040Y006539D01*
X009771Y006270D01*
X009590Y006270D01*
X009590Y006720D01*
X009570Y006720D01*
X009570Y006270D01*
X009389Y006270D01*
X009338Y006321D01*
X009317Y006271D01*
X009239Y006193D01*
X009039Y005993D01*
X009009Y005980D01*
X009060Y005929D01*
X009060Y005531D01*
X008779Y005250D01*
X008381Y005250D01*
X008100Y005531D01*
X008100Y005929D01*
X008121Y005950D01*
X008071Y005950D01*
X008003Y005882D01*
X008003Y005801D01*
X007943Y005654D01*
X007831Y005542D01*
X007684Y005482D01*
X007526Y005482D01*
X007379Y005542D01*
X007267Y005654D01*
X007207Y005801D01*
X007207Y005959D01*
X007267Y006106D01*
X007379Y006218D01*
X007526Y006278D01*
X007607Y006278D01*
X007796Y006467D01*
X007899Y006510D01*
X008121Y006510D01*
X008100Y006531D01*
X008100Y006929D01*
X008381Y007210D01*
X008779Y007210D01*
X008800Y007189D01*
X008800Y007271D01*
X008779Y007250D01*
X008381Y007250D01*
X008181Y007450D01*
X007524Y007450D01*
X007421Y007493D01*
X006964Y007950D01*
X006521Y007950D01*
X005292Y006721D01*
X005214Y006643D01*
X005111Y006600D01*
X004881Y006600D01*
X004914Y006567D01*
X004992Y006489D01*
X005035Y006386D01*
X005035Y006365D01*
X005138Y006262D01*
X005138Y004915D01*
X005061Y004838D01*
X005061Y004073D01*
X005800Y003334D01*
X005884Y003250D01*
X005930Y003140D01*
X005930Y002543D01*
X005968Y002506D01*
X006028Y002359D01*
X006028Y002201D01*
X005968Y002054D01*
X005856Y001942D01*
X005709Y001882D01*
X005551Y001882D01*
X005404Y001942D01*
X005292Y002054D01*
X005232Y002201D01*
X005232Y002359D01*
X005292Y002506D01*
X005330Y002543D01*
X005330Y002956D01*
X004507Y003779D01*
X004461Y003889D01*
X004461Y004838D01*
X004384Y004915D01*
X004384Y006200D01*
X004351Y006200D01*
X004351Y004915D01*
X004260Y004824D01*
X004260Y004162D01*
X004217Y004059D01*
X004042Y003884D01*
X004042Y003884D01*
X003964Y003805D01*
X003861Y003763D01*
X003262Y003763D01*
X003159Y003805D01*
X002907Y004057D01*
X002826Y004057D01*
X002679Y004117D01*
X002567Y004229D01*
X002507Y004376D01*
X002507Y004534D01*
X002567Y004681D01*
X002679Y004793D01*
X002826Y004853D01*
X002871Y004853D01*
X002809Y004915D01*
X002809Y006237D01*
X002796Y006243D01*
X002718Y006321D01*
X002657Y006382D01*
X002576Y006382D01*
X002429Y006442D01*
X002317Y006554D01*
X002257Y006701D01*
X002257Y006859D01*
X002317Y007006D01*
X002375Y007063D01*
X002375Y007536D01*
X002418Y007639D01*
X002496Y007717D01*
X003467Y008688D01*
X003454Y008692D01*
X003342Y008804D01*
X003310Y008882D01*
X003309Y008882D01*
X003160Y008882D01*
X003118Y008779D01*
X003006Y008667D01*
X002859Y008607D01*
X002701Y008607D01*
X002554Y008667D01*
X002442Y008779D01*
X002382Y008926D01*
X002382Y009084D01*
X002442Y009231D01*
X002500Y009288D01*
X002500Y009686D01*
X002543Y009789D01*
X004721Y011967D01*
X004824Y012010D01*
X008181Y012010D01*
X008381Y012210D01*
X008779Y012210D01*
X009060Y011929D01*
X009060Y011606D01*
X009100Y011646D01*
X009100Y011929D01*
X009381Y012210D01*
X009779Y012210D01*
X010042Y011947D01*
X010042Y012513D01*
X009779Y012250D01*
X009381Y012250D01*
X009100Y012531D01*
X009100Y012929D01*
X009191Y013020D01*
X008940Y013020D01*
X009040Y012921D01*
X009040Y012740D01*
X008590Y012740D01*
X008590Y012720D01*
X009040Y012720D01*
X009040Y012539D01*
X008771Y012270D01*
X008590Y012270D01*
X008590Y012720D01*
X008570Y012720D01*
X008570Y012270D01*
X008389Y012270D01*
X008120Y012539D01*
X008120Y012720D01*
X008570Y012720D01*
X008570Y012740D01*
X008120Y012740D01*
X008120Y012921D01*
X008220Y013020D01*
X000460Y013020D01*
X000460Y004904D01*
X000511Y004955D01*
X000825Y005085D01*
X001165Y005085D01*
X001479Y004955D01*
X001720Y004714D01*
X001850Y004400D01*
X001850Y004060D01*
X001720Y003746D01*
X001479Y003505D01*
X001165Y003375D01*
X000825Y003375D01*
X000511Y003505D01*
X000460Y003556D01*
X000460Y003509D02*
X000507Y003509D01*
X000460Y003350D02*
X004936Y003350D01*
X005094Y003192D02*
X000460Y003192D01*
X000460Y003033D02*
X005253Y003033D01*
X005330Y002875D02*
X000460Y002875D01*
X000460Y002716D02*
X002407Y002716D01*
X002444Y002753D02*
X002310Y002619D01*
X002237Y002444D01*
X002237Y002254D01*
X002310Y002079D01*
X002444Y001944D01*
X002619Y001872D01*
X002809Y001872D01*
X002984Y001944D01*
X003118Y002079D01*
X003191Y002254D01*
X003191Y002444D01*
X003118Y002619D01*
X002984Y002753D01*
X002809Y002826D01*
X002619Y002826D01*
X002444Y002753D01*
X002284Y002558D02*
X000460Y002558D01*
X000460Y002399D02*
X002237Y002399D01*
X002243Y002241D02*
X000460Y002241D01*
X000460Y002082D02*
X002308Y002082D01*
X002494Y001924D02*
X000460Y001924D01*
X000460Y001765D02*
X008100Y001765D01*
X008100Y001924D02*
X007457Y001924D01*
X007407Y001873D02*
X007542Y002008D01*
X007615Y002185D01*
X007615Y002375D01*
X007542Y002552D01*
X007407Y002687D01*
X007230Y002760D01*
X006480Y002760D01*
X006303Y002687D01*
X006168Y002552D01*
X006095Y002375D01*
X006095Y002185D01*
X006168Y002008D01*
X006303Y001873D01*
X006480Y001800D01*
X007230Y001800D01*
X007407Y001873D01*
X007573Y002082D02*
X008253Y002082D01*
X008381Y002250D02*
X008779Y002250D01*
X009060Y002531D01*
X009060Y002929D01*
X008779Y003210D01*
X008381Y003210D01*
X008100Y002929D01*
X008100Y002531D01*
X008381Y002250D01*
X008232Y002399D02*
X007605Y002399D01*
X007615Y002241D02*
X010042Y002241D01*
X010042Y002399D02*
X009900Y002399D01*
X009771Y002270D02*
X010040Y002539D01*
X010040Y002720D01*
X009590Y002720D01*
X009590Y002740D01*
X009570Y002740D01*
X009570Y003190D01*
X009389Y003190D01*
X009120Y002921D01*
X009120Y002740D01*
X009570Y002740D01*
X009570Y002720D01*
X009120Y002720D01*
X009120Y002539D01*
X009389Y002270D01*
X009570Y002270D01*
X009570Y002720D01*
X009590Y002720D01*
X009590Y002270D01*
X009771Y002270D01*
X009590Y002399D02*
X009570Y002399D01*
X009570Y002558D02*
X009590Y002558D01*
X009590Y002716D02*
X009570Y002716D01*
X009590Y002740D02*
X010040Y002740D01*
X010040Y002921D01*
X009771Y003190D01*
X009590Y003190D01*
X009590Y002740D01*
X009590Y002875D02*
X009570Y002875D01*
X009570Y003033D02*
X009590Y003033D01*
X009879Y003350D02*
X010042Y003350D01*
X010042Y003192D02*
X008797Y003192D01*
X008779Y003250D02*
X009060Y003531D01*
X009060Y003929D01*
X008779Y004210D01*
X008381Y004210D01*
X008100Y003929D01*
X008100Y003531D01*
X008381Y003250D01*
X008779Y003250D01*
X008879Y003350D02*
X009281Y003350D01*
X009123Y003509D02*
X009037Y003509D01*
X009060Y003667D02*
X009100Y003667D01*
X009100Y003826D02*
X009060Y003826D01*
X009005Y003984D02*
X009155Y003984D01*
X009314Y004143D02*
X008846Y004143D01*
X008771Y004270D02*
X009040Y004539D01*
X009040Y004720D01*
X008590Y004720D01*
X008590Y004740D01*
X008570Y004740D01*
X008570Y005190D01*
X008389Y005190D01*
X008120Y004921D01*
X008120Y004740D01*
X008570Y004740D01*
X008570Y004720D01*
X008120Y004720D01*
X008120Y004539D01*
X008389Y004270D01*
X008570Y004270D01*
X008570Y004720D01*
X008590Y004720D01*
X008590Y004270D01*
X008771Y004270D01*
X008802Y004301D02*
X009330Y004301D01*
X009172Y004460D02*
X008960Y004460D01*
X009040Y004618D02*
X009100Y004618D01*
X009040Y004740D02*
X009040Y004921D01*
X008771Y005190D01*
X008590Y005190D01*
X008590Y004740D01*
X009040Y004740D01*
X009040Y004777D02*
X009100Y004777D01*
X009106Y004935D02*
X009026Y004935D01*
X008867Y005094D02*
X009265Y005094D01*
X009379Y005252D02*
X008781Y005252D01*
X008939Y005411D02*
X009221Y005411D01*
X009100Y005569D02*
X009060Y005569D01*
X009060Y005728D02*
X009100Y005728D01*
X009100Y005886D02*
X009060Y005886D01*
X009090Y006045D02*
X009216Y006045D01*
X009249Y006203D02*
X009374Y006203D01*
X009570Y006362D02*
X009590Y006362D01*
X009590Y006520D02*
X009570Y006520D01*
X009570Y006679D02*
X009590Y006679D01*
X009590Y006837D02*
X009570Y006837D01*
X009570Y006996D02*
X009590Y006996D01*
X009590Y007154D02*
X009570Y007154D01*
X009807Y007154D02*
X010042Y007154D01*
X010042Y007313D02*
X009841Y007313D01*
X010000Y007471D02*
X010042Y007471D01*
X010042Y006996D02*
X009965Y006996D01*
X010040Y006837D02*
X010042Y006837D01*
X010040Y006679D02*
X010042Y006679D01*
X010042Y006520D02*
X010021Y006520D01*
X010042Y006362D02*
X009862Y006362D01*
X009786Y006203D02*
X010042Y006203D01*
X010042Y006045D02*
X009944Y006045D01*
X009939Y005411D02*
X010042Y005411D01*
X010042Y005252D02*
X009781Y005252D01*
X009895Y005094D02*
X010042Y005094D01*
X010042Y004460D02*
X009988Y004460D01*
X010042Y004301D02*
X009830Y004301D01*
X009846Y004143D02*
X010042Y004143D01*
X010042Y003984D02*
X010005Y003984D01*
X010037Y003509D02*
X010042Y003509D01*
X010042Y003033D02*
X009928Y003033D01*
X010040Y002875D02*
X010042Y002875D01*
X010040Y002716D02*
X010042Y002716D01*
X010040Y002558D02*
X010042Y002558D01*
X010042Y002082D02*
X009907Y002082D01*
X009253Y002082D02*
X008907Y002082D01*
X009060Y001924D02*
X009100Y001924D01*
X009100Y001765D02*
X009060Y001765D01*
X009060Y001607D02*
X009100Y001607D01*
X009260Y002399D02*
X008928Y002399D01*
X009060Y002558D02*
X009120Y002558D01*
X009120Y002716D02*
X009060Y002716D01*
X009060Y002875D02*
X009120Y002875D01*
X009232Y003033D02*
X008956Y003033D01*
X008363Y003192D02*
X005909Y003192D01*
X005930Y003033D02*
X008204Y003033D01*
X008100Y002875D02*
X005930Y002875D01*
X005930Y002716D02*
X006373Y002716D01*
X006174Y002558D02*
X005930Y002558D01*
X006012Y002399D02*
X006105Y002399D01*
X006095Y002241D02*
X006028Y002241D01*
X005979Y002082D02*
X006137Y002082D01*
X006253Y001924D02*
X005810Y001924D01*
X005450Y001924D02*
X004666Y001924D01*
X004716Y001944D02*
X004850Y002079D01*
X004923Y002254D01*
X004923Y002444D01*
X004850Y002619D01*
X004716Y002753D01*
X004541Y002826D01*
X004351Y002826D01*
X004176Y002753D01*
X004042Y002619D01*
X003969Y002444D01*
X003969Y002254D01*
X004042Y002079D01*
X004176Y001944D01*
X004351Y001872D01*
X004541Y001872D01*
X004716Y001944D01*
X004852Y002082D02*
X005281Y002082D01*
X005232Y002241D02*
X004917Y002241D01*
X004923Y002399D02*
X005248Y002399D01*
X005330Y002558D02*
X004876Y002558D01*
X004753Y002716D02*
X005330Y002716D01*
X005784Y003350D02*
X008281Y003350D01*
X008123Y003509D02*
X006653Y003509D01*
X006649Y003505D02*
X006890Y003746D01*
X007020Y004060D01*
X007020Y004400D01*
X006890Y004714D01*
X006649Y004955D01*
X006335Y005085D01*
X005995Y005085D01*
X005681Y004955D01*
X005440Y004714D01*
X005310Y004400D01*
X005310Y004060D01*
X005440Y003746D01*
X005681Y003505D01*
X005995Y003375D01*
X006335Y003375D01*
X006649Y003505D01*
X006811Y003667D02*
X008100Y003667D01*
X008100Y003826D02*
X006923Y003826D01*
X006989Y003984D02*
X008155Y003984D01*
X008314Y004143D02*
X007020Y004143D01*
X007020Y004301D02*
X008358Y004301D01*
X008570Y004301D02*
X008590Y004301D01*
X008590Y004460D02*
X008570Y004460D01*
X008570Y004618D02*
X008590Y004618D01*
X008590Y004777D02*
X008570Y004777D01*
X008570Y004935D02*
X008590Y004935D01*
X008590Y005094D02*
X008570Y005094D01*
X008379Y005252D02*
X005138Y005252D01*
X005138Y005411D02*
X008221Y005411D01*
X008100Y005569D02*
X007857Y005569D01*
X007973Y005728D02*
X008100Y005728D01*
X008100Y005886D02*
X008007Y005886D01*
X007955Y006230D02*
X007605Y005880D01*
X007353Y005569D02*
X005138Y005569D01*
X005138Y005728D02*
X007237Y005728D01*
X007207Y005886D02*
X005138Y005886D01*
X005138Y006045D02*
X007242Y006045D01*
X007365Y006203D02*
X005138Y006203D01*
X005038Y006362D02*
X007691Y006362D01*
X007955Y006230D02*
X008880Y006230D01*
X009080Y006430D01*
X009080Y007230D01*
X009580Y007730D01*
X009080Y008230D02*
X009580Y008730D01*
X009933Y009056D02*
X010042Y009056D01*
X010042Y008947D02*
X009779Y009210D01*
X009381Y009210D01*
X009100Y008929D01*
X009100Y008646D01*
X009060Y008606D01*
X009060Y008929D01*
X008779Y009210D01*
X008381Y009210D01*
X008181Y009010D01*
X007888Y009010D01*
X007831Y009068D01*
X007684Y009128D01*
X007526Y009128D01*
X007379Y009068D01*
X007267Y008956D01*
X007207Y008809D01*
X007207Y008651D01*
X007267Y008504D01*
X007292Y008480D01*
X007267Y008456D01*
X007263Y008443D01*
X007239Y008467D01*
X007136Y008510D01*
X006410Y008510D01*
X006410Y009022D01*
X006468Y009079D01*
X006528Y009226D01*
X006528Y009384D01*
X006501Y009450D01*
X008181Y009450D01*
X008381Y009250D01*
X008779Y009250D01*
X009060Y009531D01*
X009060Y009929D01*
X008779Y010210D01*
X008381Y010210D01*
X008181Y010010D01*
X005424Y010010D01*
X005321Y009967D01*
X005243Y009889D01*
X004562Y009208D01*
X004543Y009256D01*
X004431Y009368D01*
X004418Y009372D01*
X005496Y010450D01*
X008181Y010450D01*
X008381Y010250D01*
X008779Y010250D01*
X009060Y010531D01*
X009060Y010929D01*
X009039Y010950D01*
X009121Y010950D01*
X009100Y010929D01*
X009100Y010531D01*
X009381Y010250D01*
X009779Y010250D01*
X010042Y010513D01*
X010042Y008947D01*
X010042Y009215D02*
X006523Y009215D01*
X006528Y009373D02*
X008258Y009373D01*
X008227Y009056D02*
X007842Y009056D01*
X007605Y008730D02*
X008580Y008730D01*
X008933Y009056D02*
X009227Y009056D01*
X009100Y008898D02*
X009060Y008898D01*
X009060Y008739D02*
X009100Y008739D01*
X009080Y008230D02*
X007605Y008230D01*
X007580Y007730D02*
X007080Y008230D01*
X006405Y008230D01*
X005055Y006880D01*
X003382Y006880D01*
X002955Y006480D02*
X004605Y006480D01*
X004755Y006330D01*
X004755Y006105D01*
X004780Y006080D01*
X004780Y005607D01*
X004761Y005588D01*
X004384Y005569D02*
X004351Y005569D01*
X004351Y005411D02*
X004384Y005411D01*
X004384Y005252D02*
X004351Y005252D01*
X004351Y005094D02*
X004384Y005094D01*
X004384Y004935D02*
X004351Y004935D01*
X004260Y004777D02*
X004461Y004777D01*
X004461Y004618D02*
X004260Y004618D01*
X004260Y004460D02*
X004461Y004460D01*
X004461Y004301D02*
X004260Y004301D01*
X004252Y004143D02*
X004461Y004143D01*
X004461Y003984D02*
X004142Y003984D01*
X003984Y003826D02*
X004487Y003826D01*
X004619Y003667D02*
X001641Y003667D01*
X001753Y003826D02*
X003139Y003826D01*
X002980Y003984D02*
X001819Y003984D01*
X001850Y004143D02*
X002654Y004143D01*
X002538Y004301D02*
X001850Y004301D01*
X001825Y004460D02*
X002507Y004460D01*
X002542Y004618D02*
X001760Y004618D01*
X001658Y004777D02*
X002663Y004777D01*
X002646Y004830D02*
X002687Y004854D01*
X002720Y004887D01*
X002744Y004928D01*
X002756Y004974D01*
X002756Y005580D01*
X002407Y005580D01*
X002407Y004818D01*
X002600Y004818D01*
X002646Y004830D01*
X002746Y004935D02*
X002809Y004935D01*
X002809Y005094D02*
X002756Y005094D01*
X002756Y005252D02*
X002809Y005252D01*
X002809Y005411D02*
X002756Y005411D01*
X002756Y005569D02*
X002809Y005569D01*
X002756Y005597D02*
X002756Y006203D01*
X002809Y006203D01*
X002756Y006203D02*
X002744Y006248D01*
X002720Y006289D01*
X002687Y006323D01*
X002646Y006347D01*
X002600Y006359D01*
X002407Y006359D01*
X002407Y005597D01*
X002390Y005597D01*
X002390Y005580D01*
X002042Y005580D01*
X002042Y004974D01*
X002054Y004928D01*
X002078Y004887D01*
X002111Y004854D01*
X002152Y004830D01*
X002198Y004818D01*
X002390Y004818D01*
X002390Y005580D01*
X002407Y005580D01*
X002407Y005597D01*
X002756Y005597D01*
X002756Y005728D02*
X002809Y005728D01*
X002809Y005886D02*
X002756Y005886D01*
X002756Y006045D02*
X002809Y006045D01*
X002678Y006362D02*
X000460Y006362D01*
X000460Y006520D02*
X002352Y006520D01*
X002390Y006359D02*
X002198Y006359D01*
X002152Y006347D01*
X002111Y006323D01*
X002078Y006289D01*
X002054Y006248D01*
X002042Y006203D01*
X000460Y006203D01*
X000460Y006045D02*
X002042Y006045D01*
X002042Y005886D02*
X000460Y005886D01*
X000460Y005728D02*
X002042Y005728D01*
X002042Y005597D02*
X002042Y006203D01*
X002390Y006203D02*
X002407Y006203D01*
X002390Y006359D02*
X002390Y005597D01*
X002042Y005597D01*
X002042Y005569D02*
X000460Y005569D01*
X000460Y005411D02*
X002042Y005411D01*
X002042Y005252D02*
X000460Y005252D01*
X000460Y005094D02*
X002042Y005094D01*
X002052Y004935D02*
X001499Y004935D01*
X002390Y004935D02*
X002407Y004935D01*
X002390Y005094D02*
X002407Y005094D01*
X002390Y005252D02*
X002407Y005252D01*
X002390Y005411D02*
X002407Y005411D01*
X002390Y005569D02*
X002407Y005569D01*
X002390Y005728D02*
X002407Y005728D01*
X002390Y005886D02*
X002407Y005886D01*
X002390Y006045D02*
X002407Y006045D01*
X002266Y006679D02*
X000460Y006679D01*
X000460Y006837D02*
X002257Y006837D01*
X002313Y006996D02*
X001920Y006996D01*
X001879Y006955D02*
X002005Y007081D01*
X002005Y007404D01*
X001957Y007453D01*
X001908Y007501D01*
X001908Y007699D01*
X001899Y007709D01*
X001908Y007719D01*
X001908Y007719D01*
X001908Y007719D01*
X001908Y007809D01*
X001908Y007897D01*
X001908Y008288D01*
X001899Y008298D01*
X001908Y008308D01*
X001908Y008308D01*
X001908Y008308D01*
X001908Y008356D01*
X002005Y008453D01*
X002005Y008631D01*
X001908Y008728D01*
X001908Y009172D01*
X001899Y009182D01*
X001908Y009192D01*
X001908Y009192D01*
X001908Y009192D01*
X001908Y009280D01*
X001908Y009370D01*
X001908Y009576D01*
X001908Y009665D01*
X001908Y009930D01*
X001946Y009968D01*
X002005Y010027D01*
X002005Y010115D01*
X002005Y010205D01*
X002005Y010302D01*
X001971Y010336D01*
X002005Y010370D01*
X002005Y010548D01*
X001941Y010612D01*
X001879Y010674D01*
X001686Y010674D01*
X001623Y010736D01*
X001879Y010736D01*
X002005Y010862D01*
X002005Y011040D01*
X001998Y011048D01*
X002005Y011056D01*
X002005Y011234D01*
X001995Y011244D01*
X002005Y011254D01*
X002005Y011432D01*
X001941Y011496D01*
X001898Y011540D01*
X001948Y011590D01*
X002005Y011647D01*
X002005Y011647D01*
X002005Y011647D01*
X002005Y011737D01*
X002005Y011825D01*
X002005Y011825D01*
X002005Y011922D01*
X001957Y011971D01*
X001831Y012096D01*
X001637Y012096D01*
X001547Y012096D01*
X001459Y012096D01*
X001400Y012038D01*
X001333Y011971D01*
X001285Y011922D01*
X001285Y011834D01*
X001285Y011704D01*
X001124Y011704D01*
X001117Y011696D01*
X001109Y011704D01*
X000931Y011704D01*
X000805Y011578D01*
X000805Y011400D01*
X000813Y011392D01*
X000805Y011384D01*
X000805Y011235D01*
X000805Y011145D01*
X000805Y011037D01*
X000757Y010988D01*
X000708Y010940D01*
X000708Y010714D01*
X000805Y010617D01*
X000805Y010370D01*
X000815Y010361D01*
X000805Y010351D01*
X000805Y010351D01*
X000805Y010351D01*
X000805Y010261D01*
X000805Y009781D01*
X000853Y009733D01*
X000945Y009641D01*
X000931Y009641D01*
X000805Y009515D01*
X000805Y009192D01*
X000853Y009144D01*
X000945Y009052D01*
X000931Y009052D01*
X000914Y009035D01*
X000891Y009030D01*
X000853Y008974D01*
X000805Y008926D01*
X000805Y008902D01*
X000792Y008882D01*
X000805Y008815D01*
X000805Y008748D01*
X000813Y008740D01*
X000805Y008732D01*
X000805Y008583D01*
X000805Y008583D01*
X000805Y008493D01*
X000805Y008308D01*
X000839Y008274D01*
X000805Y008240D01*
X000805Y008240D01*
X000805Y008240D01*
X000805Y008150D01*
X000805Y008013D01*
X000931Y007887D01*
X000945Y007873D01*
X000883Y007873D01*
X000834Y007825D01*
X000708Y007699D01*
X000708Y007472D01*
X000805Y007376D01*
X000805Y007081D01*
X000931Y006955D01*
X001399Y006955D01*
X001405Y006961D01*
X001411Y006955D01*
X001879Y006955D01*
X002005Y007154D02*
X002375Y007154D01*
X002375Y007313D02*
X002005Y007313D01*
X001938Y007471D02*
X002375Y007471D01*
X002414Y007630D02*
X001908Y007630D01*
X001908Y007788D02*
X002567Y007788D01*
X002726Y007947D02*
X001908Y007947D01*
X001908Y007897D02*
X001908Y007897D01*
X001908Y008105D02*
X002884Y008105D01*
X003043Y008264D02*
X001908Y008264D01*
X001974Y008422D02*
X003201Y008422D01*
X003360Y008581D02*
X002005Y008581D01*
X001908Y008739D02*
X002483Y008739D01*
X002394Y008898D02*
X001908Y008898D01*
X001908Y009056D02*
X002382Y009056D01*
X002436Y009215D02*
X001908Y009215D01*
X001908Y009370D02*
X001908Y009370D01*
X001908Y009373D02*
X002500Y009373D01*
X002500Y009532D02*
X001908Y009532D01*
X001908Y009665D02*
X001908Y009665D01*
X001908Y009690D02*
X002502Y009690D01*
X002603Y009849D02*
X001908Y009849D01*
X001986Y010007D02*
X002761Y010007D01*
X002920Y010166D02*
X002005Y010166D01*
X002005Y010205D02*
X002005Y010205D01*
X001983Y010324D02*
X003078Y010324D01*
X003237Y010483D02*
X002005Y010483D01*
X001912Y010641D02*
X003395Y010641D01*
X003554Y010800D02*
X001942Y010800D01*
X002005Y010958D02*
X003712Y010958D01*
X003871Y011117D02*
X002005Y011117D01*
X002005Y011275D02*
X004029Y011275D01*
X004188Y011434D02*
X002004Y011434D01*
X001950Y011592D02*
X004346Y011592D01*
X004505Y011751D02*
X002005Y011751D01*
X002005Y011909D02*
X004663Y011909D01*
X004880Y011730D02*
X002780Y009630D01*
X002780Y009005D01*
X003077Y008739D02*
X003408Y008739D01*
X003680Y009030D02*
X005380Y010730D01*
X008580Y010730D01*
X008853Y010324D02*
X009307Y010324D01*
X009389Y010190D02*
X009120Y009921D01*
X009120Y009740D01*
X009570Y009740D01*
X009570Y010190D01*
X009389Y010190D01*
X009365Y010166D02*
X008823Y010166D01*
X008982Y010007D02*
X009206Y010007D01*
X009120Y009849D02*
X009060Y009849D01*
X009120Y009720D02*
X009120Y009539D01*
X009389Y009270D01*
X009570Y009270D01*
X009570Y009720D01*
X009120Y009720D01*
X009120Y009690D02*
X009060Y009690D01*
X009060Y009532D02*
X009128Y009532D01*
X009286Y009373D02*
X008902Y009373D01*
X008580Y009730D02*
X005480Y009730D01*
X004205Y008455D01*
X004205Y009030D02*
X002655Y007480D01*
X002655Y006780D01*
X002955Y006480D01*
X003974Y005588D02*
X003980Y005582D01*
X003980Y004218D01*
X003805Y004043D01*
X003318Y004043D01*
X002905Y004455D01*
X003180Y004855D02*
X003180Y005130D01*
X003180Y004855D02*
X003580Y004455D01*
X004351Y005728D02*
X004384Y005728D01*
X004384Y005886D02*
X004351Y005886D01*
X004351Y006045D02*
X004384Y006045D01*
X004961Y006520D02*
X008111Y006520D01*
X008100Y006679D02*
X005249Y006679D01*
X005408Y006837D02*
X008100Y006837D01*
X008167Y006996D02*
X005566Y006996D01*
X005725Y007154D02*
X008325Y007154D01*
X008319Y007313D02*
X005883Y007313D01*
X006042Y007471D02*
X007474Y007471D01*
X007285Y007630D02*
X006200Y007630D01*
X006359Y007788D02*
X007126Y007788D01*
X006968Y007947D02*
X006517Y007947D01*
X006410Y008581D02*
X007236Y008581D01*
X007207Y008739D02*
X006410Y008739D01*
X006410Y008898D02*
X007243Y008898D01*
X007368Y009056D02*
X006444Y009056D01*
X006130Y009305D02*
X006130Y008480D01*
X005380Y007730D01*
X004780Y007555D02*
X004780Y008180D01*
X005680Y009080D01*
X005203Y009849D02*
X004894Y009849D01*
X005044Y009690D02*
X004736Y009690D01*
X004886Y009532D02*
X004577Y009532D01*
X004727Y009373D02*
X004419Y009373D01*
X004559Y009215D02*
X004569Y009215D01*
X005053Y010007D02*
X005417Y010007D01*
X005211Y010166D02*
X008337Y010166D01*
X008307Y010324D02*
X005370Y010324D01*
X005330Y011230D02*
X005180Y011230D01*
X003230Y009280D01*
X002005Y010027D02*
X002005Y010027D01*
X002005Y010027D01*
X000896Y009690D02*
X000460Y009690D01*
X000460Y009532D02*
X000821Y009532D01*
X000805Y009373D02*
X000460Y009373D01*
X000460Y009215D02*
X000805Y009215D01*
X000941Y009056D02*
X000460Y009056D01*
X000460Y008898D02*
X000802Y008898D01*
X000812Y008739D02*
X000460Y008739D01*
X000460Y008581D02*
X000805Y008581D01*
X000805Y008422D02*
X000460Y008422D01*
X000460Y008264D02*
X000829Y008264D01*
X000805Y008105D02*
X000460Y008105D01*
X000460Y007947D02*
X000872Y007947D01*
X000797Y007788D02*
X000460Y007788D01*
X000460Y007630D02*
X000708Y007630D01*
X000710Y007471D02*
X000460Y007471D01*
X000460Y007313D02*
X000805Y007313D01*
X000805Y007154D02*
X000460Y007154D01*
X000460Y006996D02*
X000890Y006996D01*
X000491Y004935D02*
X000460Y004935D01*
X001483Y003509D02*
X004777Y003509D01*
X005150Y003984D02*
X005341Y003984D01*
X005310Y004143D02*
X005061Y004143D01*
X005061Y004301D02*
X005310Y004301D01*
X005335Y004460D02*
X005061Y004460D01*
X005061Y004618D02*
X005400Y004618D01*
X005502Y004777D02*
X005061Y004777D01*
X005138Y004935D02*
X005661Y004935D01*
X005138Y005094D02*
X008293Y005094D01*
X008134Y004935D02*
X006669Y004935D01*
X006828Y004777D02*
X008120Y004777D01*
X008120Y004618D02*
X006930Y004618D01*
X006995Y004460D02*
X008200Y004460D01*
X008100Y002716D02*
X007337Y002716D01*
X007536Y002558D02*
X008100Y002558D01*
X008100Y001607D02*
X007487Y001607D01*
X007264Y000814D02*
X008100Y000814D01*
X008100Y000656D02*
X000460Y000656D01*
X000460Y000497D02*
X008157Y000497D01*
X006446Y000814D02*
X000460Y000814D01*
X000460Y000973D02*
X006204Y000973D01*
X006117Y001131D02*
X000460Y001131D01*
X000460Y001290D02*
X006095Y001290D01*
X006125Y001448D02*
X000460Y001448D01*
X000460Y001607D02*
X006223Y001607D01*
X005677Y003509D02*
X005626Y003509D01*
X005519Y003667D02*
X005467Y003667D01*
X005407Y003826D02*
X005309Y003826D01*
X004139Y002716D02*
X003021Y002716D01*
X003144Y002558D02*
X004016Y002558D01*
X003969Y002399D02*
X003191Y002399D01*
X003185Y002241D02*
X003975Y002241D01*
X004040Y002082D02*
X003120Y002082D01*
X002933Y001924D02*
X004227Y001924D01*
X007580Y007730D02*
X008580Y007730D01*
X009590Y009270D02*
X009771Y009270D01*
X010040Y009539D01*
X010040Y009720D01*
X009590Y009720D01*
X009590Y009740D01*
X009570Y009740D01*
X009570Y009720D01*
X009590Y009720D01*
X009590Y009270D01*
X009590Y009373D02*
X009570Y009373D01*
X009570Y009532D02*
X009590Y009532D01*
X009590Y009690D02*
X009570Y009690D01*
X009580Y009730D02*
X010030Y009730D01*
X010040Y009740D02*
X010040Y009921D01*
X009771Y010190D01*
X009590Y010190D01*
X009590Y009740D01*
X010040Y009740D01*
X010040Y009690D02*
X010042Y009690D01*
X010032Y009532D02*
X010042Y009532D01*
X010042Y009373D02*
X009874Y009373D01*
X010040Y009849D02*
X010042Y009849D01*
X010042Y010007D02*
X009954Y010007D01*
X010042Y010166D02*
X009795Y010166D01*
X009853Y010324D02*
X010042Y010324D01*
X010042Y010483D02*
X010011Y010483D01*
X009590Y010166D02*
X009570Y010166D01*
X009570Y010007D02*
X009590Y010007D01*
X009590Y009849D02*
X009570Y009849D01*
X009149Y010483D02*
X009011Y010483D01*
X009060Y010641D02*
X009100Y010641D01*
X009100Y010800D02*
X009060Y010800D01*
X009080Y011230D02*
X005580Y011230D01*
X005330Y011230D01*
X004880Y011730D02*
X008580Y011730D01*
X008921Y012068D02*
X009239Y012068D01*
X009100Y011909D02*
X009060Y011909D01*
X009060Y011751D02*
X009100Y011751D01*
X009580Y011730D02*
X009080Y011230D01*
X009921Y012068D02*
X010042Y012068D01*
X010042Y012226D02*
X000460Y012226D01*
X000460Y012068D02*
X001430Y012068D01*
X001459Y012096D02*
X001459Y012096D01*
X001459Y012096D01*
X001333Y011971D02*
X001333Y011971D01*
X001285Y011922D02*
X001285Y011922D01*
X001285Y011922D01*
X001285Y011909D02*
X000460Y011909D01*
X000460Y011751D02*
X001285Y011751D01*
X001637Y012096D02*
X001637Y012096D01*
X001860Y012068D02*
X008239Y012068D01*
X008275Y012385D02*
X000460Y012385D01*
X000460Y012543D02*
X008120Y012543D01*
X008120Y012702D02*
X000460Y012702D01*
X000460Y012860D02*
X008120Y012860D01*
X008218Y013019D02*
X000460Y013019D01*
X000460Y011592D02*
X000819Y011592D01*
X000805Y011434D02*
X000460Y011434D01*
X000460Y011275D02*
X000805Y011275D01*
X000805Y011235D02*
X000805Y011235D01*
X000805Y011117D02*
X000460Y011117D01*
X000460Y010958D02*
X000726Y010958D01*
X000708Y010800D02*
X000460Y010800D01*
X000460Y010641D02*
X000781Y010641D01*
X000805Y010483D02*
X000460Y010483D01*
X000460Y010324D02*
X000805Y010324D01*
X000805Y010166D02*
X000460Y010166D01*
X000460Y010007D02*
X000805Y010007D01*
X000805Y009849D02*
X000460Y009849D01*
X008570Y012385D02*
X008590Y012385D01*
X008590Y012543D02*
X008570Y012543D01*
X008570Y012702D02*
X008590Y012702D01*
X008885Y012385D02*
X009247Y012385D01*
X009100Y012543D02*
X009040Y012543D01*
X009040Y012702D02*
X009100Y012702D01*
X009100Y012860D02*
X009040Y012860D01*
X008942Y013019D02*
X009190Y013019D01*
X009913Y012385D02*
X010042Y012385D01*
D17*
X007605Y008730D03*
X007605Y008230D03*
X006830Y007818D03*
X005680Y009080D03*
X006130Y009305D03*
X005380Y007730D03*
X004780Y007555D03*
X004205Y008455D03*
X004205Y009030D03*
X003680Y009030D03*
X003230Y009280D03*
X002780Y009005D03*
X003382Y006880D03*
X002655Y006780D03*
X002905Y004455D03*
X003580Y004455D03*
X004605Y003205D03*
X005630Y002280D03*
X007605Y005880D03*
X002030Y012630D03*
D18*
X002399Y005588D02*
X002380Y005569D01*
X003186Y005588D02*
X003186Y005136D01*
X003180Y005130D01*
X004761Y005588D02*
X004761Y003949D01*
X005630Y003080D01*
X005630Y002280D01*
X006855Y001280D02*
X006857Y001267D01*
X006862Y001255D01*
X006870Y001245D01*
X006880Y001237D01*
X006892Y001232D01*
X006905Y001230D01*
X009580Y001230D01*
X009580Y000730D01*
X009580Y001230D02*
X009580Y001730D01*
D19*
X010030Y009730D02*
X010055Y009755D01*
D20*
X010052Y011930D02*
X010052Y002730D01*
X009580Y002730D01*
D21*
X010055Y009755D02*
X010055Y011930D01*
X010052Y011930D01*
M02*
